<?xml version="1.0" encoding="UTF-8"?>
<svg xmlns="http://www.w3.org/2000/svg" xmlns:xlink="http://www.w3.org/1999/xlink" width="216.701pt" height="204.745pt" viewBox="0 0 216.701 204.745">
<defs>
<g>
<g id="glyph-0-0">
<path d="M 4.640625 -2.015625 C 4.640625 -3.484375 3.921875 -4.265625 2.46875 -4.265625 C 0.96875 -4.265625 0.28125 -3.46875 0.28125 -2.015625 C 0.28125 -0.5625 1.046875 0.09375 2.453125 0.09375 C 3.859375 0.09375 4.640625 -0.546875 4.640625 -2.015625 Z M 2.46875 -0.59375 C 1.5 -0.59375 1.5 -1.40625 1.5 -2.125 C 1.5 -2.8125 1.5 -3.609375 2.453125 -3.609375 C 3.421875 -3.609375 3.421875 -2.828125 3.421875 -2.125 C 3.421875 -1.421875 3.421875 -0.59375 2.46875 -0.59375 Z M 2.46875 -0.59375 "/>
</g>
<g id="glyph-0-1">
<path d="M 4.484375 -2.921875 C 4.484375 -3.84375 4.09375 -4.203125 3.171875 -4.203125 C 2.234375 -4.203125 1.828125 -3.53125 1.71875 -3.28125 L 1.703125 -3.28125 L 1.703125 -3.734375 C 1.703125 -4.015625 1.640625 -4.15625 1.28125 -4.15625 L 0.96875 -4.15625 C 0.640625 -4.15625 0.53125 -4.0625 0.53125 -3.734375 L 0.53125 -0.4375 C 0.53125 -0.109375 0.640625 0 0.96875 0 L 1.328125 0 C 1.671875 0 1.765625 -0.109375 1.765625 -0.4375 L 1.765625 -2.40625 C 1.765625 -3.1875 2.28125 -3.5625 2.75 -3.5625 C 3.171875 -3.5625 3.265625 -3.359375 3.265625 -2.890625 L 3.265625 -0.4375 C 3.265625 -0.140625 3.328125 0 3.6875 0 L 4.046875 0 C 4.390625 0 4.484375 -0.109375 4.484375 -0.4375 Z M 4.484375 -2.921875 "/>
</g>
<g id="glyph-0-2">
<path d="M 3.859375 -1.921875 C 4.078125 -1.921875 4.296875 -1.921875 4.296875 -2.328125 C 4.296875 -3.484375 3.765625 -4.265625 2.421875 -4.265625 C 0.984375 -4.265625 0.28125 -3.453125 0.28125 -2.09375 C 0.28125 -0.625 1.125 0.09375 2.53125 0.09375 C 2.875 0.09375 3.390625 0.046875 3.984375 -0.234375 C 4.171875 -0.34375 4.25 -0.375 4.25 -0.46875 C 4.25 -0.53125 4.21875 -0.796875 4.203125 -0.875 C 4.171875 -1.140625 4.15625 -1.15625 4.078125 -1.15625 C 4.046875 -1.15625 4.03125 -1.15625 3.921875 -1.0625 C 3.40625 -0.609375 2.859375 -0.546875 2.578125 -0.546875 C 1.5625 -0.546875 1.453125 -1.34375 1.421875 -1.921875 Z M 1.4375 -2.390625 C 1.46875 -2.9375 1.640625 -3.609375 2.421875 -3.609375 C 3.140625 -3.609375 3.28125 -3.09375 3.296875 -2.390625 Z M 1.4375 -2.390625 "/>
</g>
<g id="glyph-0-3">
<path d="M 4.46875 -3.78125 C 4.46875 -4.0625 4.40625 -4.203125 4.046875 -4.203125 L 3.71875 -4.203125 C 3.375 -4.203125 3.28125 -4.09375 3.28125 -3.78125 L 3.28125 -3.609375 C 2.890625 -4.203125 2.359375 -4.203125 2.203125 -4.203125 C 0.46875 -4.203125 0.328125 -2.765625 0.328125 -2.046875 C 0.328125 -1.34375 0.46875 0.09375 2.140625 0.09375 C 2.625 0.09375 2.953125 -0.078125 3.25 -0.4375 L 3.25 1.3125 C 3.25 1.59375 3.3125 1.734375 3.6875 1.734375 L 4.046875 1.734375 C 4.390625 1.734375 4.46875 1.625 4.46875 1.3125 Z M 3.28125 -1.03125 C 3.125 -0.8125 2.875 -0.546875 2.46875 -0.546875 C 1.546875 -0.546875 1.546875 -1.6875 1.546875 -2.03125 C 1.546875 -2.390625 1.546875 -3.5 2.5625 -3.5 C 2.703125 -3.5 2.890625 -3.46875 3.046875 -3.296875 C 3.28125 -3.078125 3.28125 -2.921875 3.28125 -2.8125 Z M 3.28125 -1.03125 "/>
</g>
<g id="glyph-0-4">
<path d="M 4.484375 -3.671875 C 4.484375 -3.96875 4.421875 -4.109375 4.046875 -4.109375 L 3.6875 -4.109375 C 3.359375 -4.109375 3.265625 -3.984375 3.265625 -3.671875 L 3.265625 -1.546875 C 3.265625 -0.953125 2.953125 -0.453125 2.3125 -0.453125 C 1.8125 -0.453125 1.765625 -0.578125 1.765625 -1.046875 L 1.765625 -3.671875 C 1.765625 -3.96875 1.6875 -4.109375 1.328125 -4.109375 L 0.96875 -4.109375 C 0.640625 -4.109375 0.53125 -4.015625 0.53125 -3.671875 L 0.53125 -1.125 C 0.53125 -0.171875 1.0625 0.09375 1.984375 0.09375 C 2.234375 0.09375 2.875 0.09375 3.296875 -0.65625 L 3.296875 -0.4375 C 3.296875 -0.140625 3.359375 0 3.71875 0 L 4.046875 0 C 4.390625 0 4.484375 -0.109375 4.484375 -0.4375 Z M 4.484375 -3.671875 "/>
</g>
<g id="glyph-0-5">
<path d="M 1.734375 -2.0625 C 1.734375 -2.921875 2.453125 -3.265625 3.015625 -3.296875 C 3.171875 -3.3125 3.1875 -3.3125 3.1875 -3.546875 L 3.1875 -3.96875 C 3.1875 -4.140625 3.1875 -4.203125 3.03125 -4.203125 C 2.78125 -4.203125 2.125 -4.109375 1.703125 -3.140625 L 1.6875 -3.140625 L 1.6875 -3.734375 C 1.6875 -4.015625 1.625 -4.15625 1.265625 -4.15625 L 0.984375 -4.15625 C 0.65625 -4.15625 0.546875 -4.0625 0.546875 -3.734375 L 0.546875 -0.4375 C 0.546875 -0.109375 0.640625 0 0.984375 0 L 1.3125 0 C 1.65625 0 1.734375 -0.109375 1.734375 -0.4375 Z M 1.734375 -2.0625 "/>
</g>
<g id="glyph-0-6">
<path d="M 4.203125 -3.6875 C 4.25 -3.796875 4.25 -3.828125 4.25 -3.859375 C 4.25 -4.109375 4 -4.109375 3.890625 -4.109375 L 3.6875 -4.109375 C 3.546875 -4.109375 3.34375 -4.109375 3.203125 -3.90625 C 3.1875 -3.859375 2.453125 -1.875 2.40625 -1.28125 C 2.359375 -1.71875 1.984375 -2.546875 1.609375 -3.40625 C 1.359375 -3.96875 1.296875 -4.109375 0.84375 -4.109375 L 0.609375 -4.109375 C 0.484375 -4.109375 0.265625 -4.109375 0.265625 -3.875 C 0.265625 -3.84375 0.28125 -3.78125 0.3125 -3.734375 L 2 0 C 1.921875 0.1875 1.90625 0.28125 1.875 0.375 C 1.765625 0.671875 1.609375 1.078125 1.125 1.078125 C 0.828125 1.078125 0.625 0.953125 0.53125 0.890625 C 0.484375 0.859375 0.46875 0.859375 0.4375 0.859375 C 0.390625 0.859375 0.328125 0.875 0.328125 0.984375 C 0.328125 1.0625 0.375 1.671875 0.40625 1.71875 C 0.484375 1.828125 0.96875 1.84375 1.109375 1.84375 C 2.21875 1.84375 2.65625 0.78125 2.734375 0.5625 Z M 4.203125 -3.6875 "/>
</g>
<g id="glyph-0-7">
<path d="M 1.953125 -3.859375 C 1.953125 -4.09375 1.953125 -4.109375 1.71875 -4.109375 L 1.015625 -4.109375 C 0.796875 -4.109375 0.78125 -4.09375 0.78125 -3.859375 L 0.78125 -3.171875 C 0.78125 -2.9375 0.796875 -2.9375 1.015625 -2.9375 L 1.71875 -2.9375 C 1.953125 -2.9375 1.953125 -2.9375 1.953125 -3.171875 Z M 0.78125 -0.234375 C 0.78125 -0.015625 0.796875 0 1.015625 0 L 1.71875 0 C 1.953125 0 1.953125 -0.015625 1.953125 -0.234375 L 1.953125 -0.9375 C 1.953125 -1.171875 1.953125 -1.171875 1.71875 -1.171875 L 1.015625 -1.171875 C 0.796875 -1.171875 0.78125 -1.171875 0.78125 -0.9375 Z M 0.78125 -0.234375 "/>
</g>
<g id="glyph-0-8">
<path d="M 2.875 -6.734375 C 2.71875 -6.734375 2.703125 -6.734375 2.53125 -6.578125 C 1.46875 -5.671875 0.765625 -4.140625 0.765625 -2.25 C 0.765625 -1.15625 1 0.71875 2.5 2.078125 C 2.6875 2.25 2.703125 2.25 2.875 2.25 L 3.046875 2.25 C 3.1875 2.25 3.28125 2.25 3.28125 2.125 C 3.28125 2.09375 3.28125 2.078125 3.171875 1.96875 C 2.609375 1.28125 1.984375 0.171875 1.984375 -2.25 C 1.984375 -4.875 2.734375 -5.921875 3.234375 -6.515625 C 3.265625 -6.5625 3.28125 -6.578125 3.28125 -6.609375 C 3.28125 -6.734375 3.1875 -6.734375 3.046875 -6.734375 Z M 2.875 -6.734375 "/>
</g>
<g id="glyph-0-9">
<path d="M 3.1875 -5.984375 C 3.1875 -6.15625 3.1875 -6.421875 2.796875 -6.421875 C 2.609375 -6.421875 2.578125 -6.40625 2.46875 -6.296875 C 2.3125 -6.15625 1.96875 -5.828125 1.078125 -5.796875 C 0.921875 -5.796875 0.6875 -5.734375 0.6875 -5.484375 C 0.6875 -5.15625 1 -5.15625 1.109375 -5.15625 C 1.375 -5.15625 1.6875 -5.203125 1.953125 -5.28125 L 1.953125 -0.640625 L 1.25 -0.640625 C 1.140625 -0.640625 0.828125 -0.640625 0.828125 -0.328125 C 0.828125 0 1.140625 0 1.25 0 L 3.8125 0 C 3.90625 0 4.25 0 4.25 -0.328125 C 4.25 -0.640625 3.90625 -0.640625 3.8125 -0.640625 L 3.1875 -0.640625 Z M 3.1875 -5.984375 "/>
</g>
<g id="glyph-0-10">
<path d="M 0.796875 -6.734375 C 0.640625 -6.734375 0.546875 -6.734375 0.546875 -6.609375 C 0.546875 -6.578125 0.546875 -6.5625 0.65625 -6.453125 C 1.203125 -5.765625 1.84375 -4.65625 1.84375 -2.25 C 1.84375 0.390625 1.09375 1.421875 0.59375 2.03125 C 0.546875 2.09375 0.546875 2.109375 0.546875 2.125 C 0.546875 2.25 0.640625 2.25 0.796875 2.25 L 0.953125 2.25 C 1.109375 2.25 1.125 2.25 1.296875 2.09375 C 2.375 1.1875 3.0625 -0.34375 3.0625 -2.25 C 3.0625 -3.328125 2.828125 -5.203125 1.34375 -6.5625 C 1.140625 -6.734375 1.125 -6.734375 0.953125 -6.734375 Z M 0.796875 -6.734375 "/>
</g>
<g id="glyph-0-11">
<path d="M 0.578125 -0.765625 C 0.5 -0.671875 0.5 -0.65625 0.5 -0.5 L 0.5 -0.4375 C 0.5 -0.109375 0.59375 0 0.921875 0 L 4 0 C 4.34375 0 4.4375 -0.109375 4.4375 -0.4375 L 4.4375 -0.53125 C 4.4375 -0.6875 4.4375 -0.859375 4.25 -0.9375 C 4.171875 -0.96875 3.890625 -0.96875 3.71875 -0.96875 C 3.515625 -0.96875 3.296875 -0.953125 3.109375 -0.953125 L 1.65625 -0.953125 L 2.828125 -2.078125 C 2.96875 -2.203125 3.3125 -2.46875 3.4375 -2.59375 C 3.9375 -3.078125 4.4375 -3.5625 4.4375 -4.359375 C 4.4375 -5.453125 3.640625 -6.421875 2.328125 -6.421875 C 2.015625 -6.421875 1.5 -6.375 1.0625 -6.03125 C 0.984375 -5.96875 0.578125 -5.640625 0.40625 -5.046875 L 0.859375 -4.46875 C 0.921875 -4.390625 0.9375 -4.359375 1 -4.359375 C 1.078125 -4.359375 1.109375 -4.421875 1.125 -4.53125 C 1.3125 -5.140625 1.609375 -5.53125 2.1875 -5.53125 C 2.890625 -5.53125 3.171875 -4.890625 3.171875 -4.34375 C 3.171875 -3.765625 2.828125 -3.171875 2.296875 -2.59375 Z M 0.578125 -0.765625 "/>
</g>
<g id="glyph-0-12">
<path d="M 0.859375 -4.984375 C 0.9375 -4.875 0.984375 -4.875 1 -4.875 C 1.0625 -4.875 1.078125 -4.90625 1.125 -4.96875 C 1.578125 -5.625 2.21875 -5.625 2.328125 -5.625 C 2.90625 -5.625 2.984375 -5.328125 2.984375 -4.890625 C 2.984375 -4.765625 2.984375 -4.328125 2.703125 -3.984375 C 2.5 -3.734375 2.265625 -3.71875 2 -3.703125 C 1.90625 -3.6875 1.734375 -3.6875 1.703125 -3.671875 C 1.640625 -3.640625 1.640625 -3.59375 1.640625 -3.4375 L 1.640625 -3.28125 C 1.640625 -3.046875 1.65625 -3.046875 1.890625 -3.046875 L 2.28125 -3.046875 C 3.09375 -3.046875 3.1875 -2.53125 3.1875 -1.84375 C 3.1875 -1.234375 3.125 -0.640625 2.3125 -0.640625 C 2.03125 -0.640625 1.359375 -0.703125 0.765625 -1.28125 C 0.6875 -1.359375 0.671875 -1.359375 0.640625 -1.359375 C 0.546875 -1.359375 0.53125 -1.28125 0.515625 -1.265625 C 0.515625 -1.25 0.40625 -0.6875 0.40625 -0.640625 C 0.40625 -0.53125 1.1875 0.203125 2.359375 0.203125 C 3.90625 0.203125 4.515625 -0.625 4.515625 -1.828125 C 4.515625 -2.625 4.078125 -3.171875 3.28125 -3.375 C 4 -3.78125 4.25 -4.359375 4.25 -4.875 C 4.25 -6.3125 2.953125 -6.421875 2.375 -6.421875 C 1.140625 -6.421875 0.546875 -5.546875 0.546875 -5.46875 C 0.546875 -5.421875 0.59375 -5.34375 0.609375 -5.34375 Z M 0.859375 -4.984375 "/>
</g>
<g id="glyph-0-13">
<path d="M 0.34375 -2.34375 C 0.28125 -2.21875 0.28125 -2.1875 0.28125 -2.03125 L 0.28125 -1.796875 C 0.28125 -1.515625 0.34375 -1.375 0.703125 -1.375 L 2.71875 -1.375 L 2.71875 -0.4375 C 2.71875 -0.140625 2.796875 0 3.15625 0 L 3.40625 0 C 3.75 0 3.84375 -0.109375 3.84375 -0.4375 L 3.84375 -1.375 L 4.21875 -1.375 C 4.5 -1.375 4.640625 -1.4375 4.640625 -1.796875 C 4.640625 -2.125 4.53125 -2.21875 4.21875 -2.21875 L 3.84375 -2.21875 L 3.84375 -5.796875 C 3.84375 -6.109375 3.734375 -6.21875 3.40625 -6.21875 L 2.75 -6.21875 C 2.578125 -6.21875 2.453125 -6.21875 2.34375 -6.015625 Z M 1.203125 -2.21875 C 2.640625 -4.859375 2.71875 -5.125 2.765625 -5.28125 L 2.78125 -5.28125 L 2.78125 -2.21875 Z M 1.203125 -2.21875 "/>
</g>
<g id="glyph-0-14">
<path d="M 1.90625 -5.328125 L 3.671875 -5.328125 C 4.09375 -5.328125 4.09375 -5.53125 4.09375 -5.78125 C 4.09375 -6.015625 4.09375 -6.21875 3.671875 -6.21875 L 1.171875 -6.21875 C 0.890625 -6.21875 0.75 -6.171875 0.75 -5.8125 L 0.75 -3.0625 C 0.75 -2.65625 0.953125 -2.65625 1.1875 -2.65625 C 1.421875 -2.65625 1.5 -2.65625 1.625 -2.875 C 1.84375 -3.21875 2.15625 -3.40625 2.53125 -3.40625 C 3.109375 -3.40625 3.109375 -2.71875 3.109375 -2.015625 C 3.109375 -1.328125 3.109375 -0.640625 2.171875 -0.640625 C 1.890625 -0.640625 1.28125 -0.71875 0.921875 -1.4375 C 0.890625 -1.484375 0.875 -1.546875 0.8125 -1.546875 C 0.734375 -1.546875 0.71875 -1.5 0.65625 -1.421875 C 0.53125 -1.21875 0.328125 -0.90625 0.328125 -0.84375 C 0.328125 -0.765625 0.921875 0.203125 2.203125 0.203125 C 3.640625 0.203125 4.4375 -0.53125 4.4375 -1.984375 C 4.4375 -3.171875 3.9375 -4.046875 2.5625 -4.046875 C 2.34375 -4.046875 2.125 -4.015625 1.90625 -3.921875 Z M 1.90625 -5.328125 "/>
</g>
<g id="glyph-0-15">
<path d="M 2.3125 -1.734375 C 2.40625 -1.734375 2.734375 -1.734375 2.734375 -2.046875 C 2.734375 -2.375 2.40625 -2.375 2.3125 -2.375 L 0.53125 -2.375 C 0.4375 -2.375 0.109375 -2.375 0.109375 -2.046875 C 0.109375 -1.734375 0.4375 -1.734375 0.53125 -1.734375 Z M 2.3125 -1.734375 "/>
</g>
<g id="glyph-0-16">
<path d="M 1.953125 -0.9375 C 1.953125 -1.171875 1.953125 -1.171875 1.71875 -1.171875 L 1.015625 -1.171875 C 0.796875 -1.171875 0.78125 -1.171875 0.78125 -0.9375 L 0.78125 -0.234375 C 0.78125 -0.015625 0.796875 0 1.015625 0 L 1.71875 0 C 1.953125 0 1.953125 -0.015625 1.953125 -0.234375 Z M 1.953125 -0.9375 "/>
</g>
<g id="glyph-0-17">
<path d="M 3.40625 -3.359375 C 4.265625 -3.640625 4.375 -4.265625 4.375 -4.671875 C 4.375 -5.984375 3.53125 -6.421875 2.46875 -6.421875 C 1.484375 -6.421875 0.546875 -6.078125 0.546875 -4.671875 C 0.546875 -4.203125 0.703125 -3.625 1.515625 -3.359375 C 0.59375 -3.09375 0.40625 -2.390625 0.40625 -1.828125 C 0.40625 -0.421875 1.171875 0.203125 2.453125 0.203125 C 3.8125 0.203125 4.515625 -0.46875 4.515625 -1.828125 C 4.515625 -2.640625 4.125 -3.140625 3.40625 -3.359375 Z M 2.46875 -3.6875 C 1.71875 -3.6875 1.6875 -4.125 1.6875 -4.65625 C 1.6875 -5.28125 1.75 -5.625 2.453125 -5.625 C 3.171875 -5.625 3.234375 -5.296875 3.234375 -4.65625 C 3.234375 -4.140625 3.21875 -3.6875 2.46875 -3.6875 Z M 2.46875 -0.640625 C 1.671875 -0.640625 1.65625 -1.140625 1.65625 -1.84375 C 1.65625 -2.421875 1.65625 -3.046875 2.453125 -3.046875 C 3.265625 -3.046875 3.265625 -2.4375 3.265625 -1.84375 C 3.265625 -1.171875 3.25 -0.640625 2.46875 -0.640625 Z M 2.46875 -0.640625 "/>
</g>
<g id="glyph-0-18">
<path d="M 4.53125 -3.078125 C 4.53125 -4.3125 4.53125 -6.421875 2.46875 -6.421875 C 0.390625 -6.421875 0.390625 -4.328125 0.390625 -3.078125 C 0.390625 -1.84375 0.390625 0.203125 2.453125 0.203125 C 4.53125 0.203125 4.53125 -1.828125 4.53125 -3.078125 Z M 2.453125 -0.453125 C 1.796875 -0.453125 1.6875 -1.28125 1.671875 -1.515625 C 1.609375 -1.984375 1.609375 -2.828125 1.609375 -3.203125 C 1.609375 -3.734375 1.609375 -4.3125 1.65625 -4.75 C 1.6875 -4.984375 1.78125 -5.78125 2.453125 -5.78125 C 3.125 -5.78125 3.234375 -5.015625 3.25 -4.84375 C 3.3125 -4.390625 3.3125 -3.671875 3.3125 -3.203125 C 3.3125 -2.6875 3.3125 -1.984375 3.25 -1.5 C 3.234375 -1.265625 3.125 -0.453125 2.453125 -0.453125 Z M 2.453125 -0.453125 "/>
</g>
<g id="glyph-0-19">
<path d="M 3.296875 -5.265625 C 1.28125 -3.046875 1.28125 -0.796875 1.28125 -0.328125 C 1.28125 -0.046875 1.34375 0.09375 1.71875 0.09375 L 2.125 0.09375 C 2.265625 0.09375 2.5625 0.09375 2.5625 -0.25 C 2.578125 -2.46875 3.359375 -4.09375 4.4375 -5.453125 C 4.515625 -5.546875 4.515625 -5.609375 4.515625 -5.78125 C 4.515625 -5.96875 4.515625 -6.21875 4.140625 -6.21875 C 3.828125 -6.234375 2.03125 -6.234375 1.59375 -6.234375 L 1.015625 -6.234375 C 0.59375 -6.234375 0.40625 -6.234375 0.40625 -5.796875 L 0.40625 -5.6875 C 0.40625 -5.546875 0.40625 -5.375 0.59375 -5.296875 C 0.65625 -5.25 0.953125 -5.25 1.140625 -5.25 C 1.359375 -5.25 1.5625 -5.265625 1.78125 -5.265625 Z M 3.296875 -5.265625 "/>
</g>
<g id="glyph-0-20">
<path d="M 3.875 -5.984375 C 3.875 -6.203125 3.875 -6.21875 3.5625 -6.328125 C 3.328125 -6.421875 3.078125 -6.421875 3 -6.421875 C 0.40625 -6.421875 0.40625 -3.84375 0.40625 -3.046875 C 0.40625 -2.125 0.40625 0.203125 2.5 0.203125 C 3.1875 0.203125 3.625 0.03125 3.984375 -0.390625 C 4.453125 -0.90625 4.515625 -1.421875 4.515625 -2.109375 C 4.515625 -2.625 4.515625 -4.296875 2.765625 -4.296875 C 2.265625 -4.296875 1.90625 -4.015625 1.671875 -3.5 C 1.71875 -4.3125 1.71875 -4.5 1.859375 -4.859375 C 2.109375 -5.546875 2.703125 -5.625 3.015625 -5.625 C 3.1875 -5.625 3.421875 -5.59375 3.625 -5.484375 C 3.6875 -5.4375 3.71875 -5.421875 3.765625 -5.421875 C 3.875 -5.421875 3.875 -5.53125 3.875 -5.65625 Z M 2.5 -0.640625 C 1.78125 -0.640625 1.6875 -1.453125 1.6875 -2.21875 C 1.6875 -2.96875 1.90625 -3.65625 2.53125 -3.65625 C 3.25 -3.65625 3.25 -3.015625 3.25 -2.125 C 3.25 -1.25 3.25 -0.640625 2.5 -0.640625 Z M 2.5 -0.640625 "/>
</g>
<g id="glyph-1-0">
<path d="M 7 -3.984375 L 6.3125 -3.984375 L 5.546875 -2.53125 C 5.03125 -1.5 4.65625 -0.796875 4.5625 -0.5 C 4.5625 -0.515625 4.578125 -0.6875 4.578125 -0.703125 C 4.578125 -1 4.53125 -1.46875 4.515625 -1.765625 L 4.296875 -3.984375 L 3.625 -3.984375 L 2.875 -2.53125 C 2.40625 -1.625 2.078125 -0.96875 1.921875 -0.546875 C 1.9375 -0.671875 1.9375 -0.75 1.9375 -0.90625 C 1.9375 -1.625 1.75 -3.421875 1.6875 -3.984375 L 0.984375 -3.984375 L 1.390625 0 L 2.140625 0 L 2.921875 -1.484375 C 3.421875 -2.5 3.71875 -3.078125 3.84375 -3.453125 C 3.84375 -3.390625 3.84375 -3.28125 3.84375 -3.0625 C 3.84375 -2.890625 3.84375 -2.5625 3.921875 -1.5625 C 4.03125 -0.453125 4.015625 -0.75 4.078125 0 L 4.890625 0 Z M 7 -3.984375 "/>
</g>
<g id="glyph-1-1">
<path d="M 4.59375 -2.71875 C 4.625 -2.828125 4.65625 -2.984375 4.65625 -3.171875 C 4.65625 -3.53125 4.578125 -4.078125 3.625 -4.078125 C 2.9375 -4.078125 2.40625 -3.671875 2.171875 -3.4375 L 2.765625 -6.21875 L 2.046875 -6.21875 L 0.71875 0 L 1.46875 0 L 1.90625 -2.03125 C 2.109375 -2.984375 2.515625 -3.5 3.125 -3.5 C 3.796875 -3.5 3.875 -3.171875 3.875 -2.90625 C 3.875 -2.796875 3.859375 -2.734375 3.84375 -2.671875 L 3.28125 0 L 4.03125 0 Z M 4.59375 -2.71875 "/>
</g>
<g id="glyph-1-2">
<path d="M 4.265625 -2.640625 C 4.28125 -2.765625 4.28125 -2.828125 4.28125 -2.9375 C 4.28125 -3.5625 3.875 -4.140625 3.03125 -4.140625 C 2.53125 -4.140625 2.015625 -4.015625 1.5 -3.734375 L 1.421875 -3.109375 C 1.859375 -3.375 2.328125 -3.5625 2.90625 -3.5625 C 3.390625 -3.5625 3.53125 -3.203125 3.53125 -2.875 C 3.53125 -2.765625 3.46875 -2.21875 3.390625 -2.203125 C 3.296875 -2.203125 3.28125 -2.203125 3.1875 -2.203125 C 2.890625 -2.1875 2.21875 -2.15625 1.5625 -1.90625 C 0.796875 -1.625 0.59375 -1.21875 0.59375 -0.796875 C 0.59375 -0.453125 0.75 0.09375 1.4375 0.09375 C 1.765625 0.09375 2.5 0.03125 3.046875 -0.34375 L 2.984375 0 L 3.6875 0 Z M 3.3125 -1.71875 C 3.28125 -1.53125 3.234375 -1.34375 3.203125 -1.171875 C 3.0625 -0.625 2.40625 -0.484375 2.03125 -0.484375 C 1.71875 -0.484375 1.296875 -0.59375 1.296875 -0.96875 C 1.296875 -1.6875 3.1875 -1.71875 3.3125 -1.71875 Z M 3.3125 -1.71875 "/>
</g>
<g id="glyph-1-3">
<path d="M 2.34375 -3.421875 L 3.640625 -3.421875 L 3.765625 -3.984375 L 2.46875 -3.984375 L 2.703125 -5.125 L 2.046875 -5.125 L 1.796875 -3.984375 L 1.015625 -3.984375 L 0.890625 -3.421875 L 1.65625 -3.421875 C 1.5625 -2.984375 1.328125 -1.859375 1.203125 -1.3125 C 1.140625 -0.984375 1.109375 -0.828125 1.109375 -0.625 C 1.109375 0.0625 1.484375 0.09375 1.6875 0.09375 C 1.96875 0.09375 2.5 0.046875 3.125 -0.234375 L 3.078125 -0.796875 C 2.71875 -0.5625 2.390625 -0.515625 2.203125 -0.515625 C 1.90625 -0.515625 1.859375 -0.71875 1.859375 -0.953125 C 1.859375 -1.046875 1.859375 -1.09375 1.890625 -1.203125 Z M 2.34375 -3.421875 "/>
</g>
<g id="glyph-1-4">
<path d="M 5.34375 -6.21875 L 4.625 -6.21875 L 4.046875 -3.59375 C 3.78125 -3.859375 3.3125 -4.078125 2.796875 -4.078125 C 1.703125 -4.078125 0.6875 -2.75 0.6875 -1.40625 C 0.6875 -0.609375 1.09375 0.09375 1.875 0.09375 C 2.21875 0.09375 2.796875 -0.015625 3.359375 -0.46875 L 3.265625 0 L 4.015625 0 Z M 3.53125 -1.234375 C 3.484375 -1.09375 3.484375 -1.078125 3.390625 -0.96875 C 3.25 -0.8125 2.890625 -0.484375 2.40625 -0.484375 C 1.90625 -0.484375 1.4375 -0.796875 1.4375 -1.53125 C 1.4375 -2.53125 2.125 -3.5 3.125 -3.5 C 3.5 -3.5 3.765625 -3.34375 3.90625 -3.015625 Z M 3.53125 -1.234375 "/>
</g>
<g id="glyph-1-5">
<path d="M 2.828125 -6.140625 L 1.96875 -6.140625 L 1.78125 -5.28125 L 2.640625 -5.28125 Z M 0.734375 0 L 1.453125 0 L 2.296875 -3.984375 L 1.578125 -3.984375 Z M 0.734375 0 "/>
</g>
<g id="glyph-1-6">
<path d="M 4.25 -1.96875 C 4.3125 -2.21875 4.34375 -2.46875 4.34375 -2.734375 C 4.34375 -3.828125 3.671875 -4.140625 3.046875 -4.140625 C 1.828125 -4.140625 0.6875 -2.8125 0.6875 -1.546875 C 0.6875 -0.640625 1.296875 0.09375 2.296875 0.09375 C 3.109375 0.09375 3.84375 -0.3125 3.84375 -0.359375 C 3.859375 -0.390625 3.90625 -0.75 3.9375 -0.953125 C 3.3125 -0.578125 2.765625 -0.484375 2.4375 -0.484375 C 1.6875 -0.484375 1.359375 -1.078125 1.359375 -1.65625 C 1.359375 -1.78125 1.359375 -1.8125 1.390625 -1.96875 Z M 1.5625 -2.5 C 1.890625 -3.171875 2.453125 -3.546875 2.9375 -3.546875 C 3.828125 -3.546875 3.828125 -2.703125 3.828125 -2.5 Z M 1.5625 -2.5 "/>
</g>
<g id="glyph-1-7">
<path d="M 4.578125 -3.734375 C 4.578125 -3.75 4.28125 -3.9375 4.046875 -4.015625 C 3.84375 -4.09375 3.59375 -4.140625 3.234375 -4.140625 C 1.8125 -4.140625 0.703125 -2.765625 0.703125 -1.53125 C 0.703125 -0.59375 1.328125 0.09375 2.3125 0.09375 C 3.0625 0.09375 3.59375 -0.171875 3.890625 -0.328125 C 3.953125 -0.640625 3.953125 -0.65625 3.984375 -0.96875 C 3.65625 -0.78125 3.140625 -0.515625 2.453125 -0.515625 C 1.671875 -0.515625 1.4375 -1.125 1.4375 -1.59375 C 1.4375 -2.328125 1.96875 -3.53125 3.109375 -3.53125 C 3.609375 -3.53125 3.90625 -3.4375 4.328125 -3.109375 Z M 4.578125 -3.734375 "/>
</g>
<g id="glyph-1-8">
<path d="M 3.984375 -3.84375 C 3.5625 -4.046875 3.21875 -4.140625 2.703125 -4.140625 C 1.03125 -4.140625 0.90625 -2.90625 0.90625 -2.71875 C 0.90625 -1.953125 1.75 -1.78125 1.984375 -1.734375 C 2.53125 -1.625 2.890625 -1.5625 2.890625 -1.1875 C 2.890625 -1.171875 2.890625 -0.5 1.90625 -0.5 C 1.609375 -0.5 1.0625 -0.5625 0.578125 -0.953125 L 0.328125 -0.3125 C 0.9375 0.09375 1.59375 0.09375 1.78125 0.09375 C 3.3125 0.09375 3.59375 -1.03125 3.59375 -1.375 C 3.59375 -1.71875 3.4375 -1.96875 3.234375 -2.125 C 3 -2.328125 2.78125 -2.375 2.375 -2.453125 C 1.921875 -2.53125 1.609375 -2.609375 1.609375 -2.953125 C 1.609375 -2.96875 1.609375 -3.5625 2.5 -3.5625 C 3 -3.5625 3.375 -3.453125 3.734375 -3.21875 Z M 3.984375 -3.84375 "/>
</g>
<g id="glyph-1-9">
<path d="M 1.84375 -5.25 C 2.546875 -5.734375 3.125 -5.734375 3.296875 -5.734375 C 3.765625 -5.734375 4.15625 -5.640625 4.15625 -5.15625 C 4.15625 -4.625 3.828125 -4.390625 3.65625 -4.265625 C 3.234375 -3.953125 2.9375 -3.625 2.71875 -3.3125 C 2.3125 -2.71875 2.234375 -2.328125 2.078125 -1.59375 L 2.6875 -1.59375 C 2.875 -2.4375 3 -3.046875 4.203125 -3.890625 C 4.703125 -4.265625 4.90625 -4.796875 4.90625 -5.234375 C 4.90625 -6.078125 4.171875 -6.328125 3.40625 -6.328125 C 2.671875 -6.328125 2.140625 -6.0625 1.75 -5.84375 Z M 2.59375 -0.765625 L 1.828125 -0.765625 L 1.65625 0 L 2.4375 0 Z M 2.59375 -0.765625 "/>
</g>
<g id="glyph-2-0">
<path d="M 3.40625 -2.265625 C 3.40625 -2.59375 3.40625 -3.421875 3.078125 -3.984375 C 2.71875 -4.609375 2.1875 -4.71875 1.84375 -4.71875 C 1.53125 -4.71875 0.984375 -4.625 0.640625 -4.015625 C 0.3125 -3.46875 0.296875 -2.703125 0.296875 -2.265625 C 0.296875 -1.75 0.328125 -1.109375 0.609375 -0.578125 C 0.921875 -0.015625 1.4375 0.140625 1.84375 0.140625 C 2.546875 0.140625 2.921875 -0.265625 3.140625 -0.703125 C 3.375 -1.1875 3.40625 -1.828125 3.40625 -2.265625 Z M 1.84375 -0.3125 C 1.546875 -0.3125 1.21875 -0.484375 1.046875 -0.984375 C 0.90625 -1.40625 0.90625 -1.84375 0.90625 -2.359375 C 0.90625 -3 0.90625 -4.265625 1.84375 -4.265625 C 2.796875 -4.265625 2.796875 -3 2.796875 -2.359375 C 2.796875 -1.890625 2.796875 -1.375 2.625 -0.921875 C 2.4375 -0.421875 2.078125 -0.3125 1.84375 -0.3125 Z M 1.84375 -0.3125 "/>
</g>
<g id="glyph-3-0">
<path d="M 3.578125 -5.5625 C 4.1875 -5.5625 4.8125 -5.546875 5.421875 -5.546875 L 5.953125 -5.546875 L 5.953125 -6.171875 L 0.328125 -6.171875 L 0.328125 -5.546875 L 0.875 -5.546875 C 1.484375 -5.546875 2.109375 -5.5625 2.71875 -5.5625 L 2.71875 0 L 3.578125 0 Z M 3.578125 -5.5625 "/>
</g>
<g id="glyph-3-1">
<path d="M 4.03125 -2.65625 C 4.03125 -3.328125 3.84375 -4.078125 2.765625 -4.078125 C 2.25 -4.078125 1.765625 -3.84375 1.4375 -3.4375 L 1.4375 -6.21875 L 0.71875 -6.21875 L 0.71875 0 L 1.46875 0 L 1.46875 -2.1875 C 1.46875 -2.78125 1.703125 -3.5 2.390625 -3.5 C 3.28125 -3.5 3.28125 -2.859375 3.28125 -2.59375 L 3.28125 0 L 4.03125 0 Z M 4.03125 -2.65625 "/>
</g>
<g id="glyph-3-2">
<path d="M 3.828125 -1.96875 C 3.828125 -2.25 3.828125 -2.921875 3.46875 -3.46875 C 3.09375 -4.03125 2.515625 -4.140625 2.171875 -4.140625 C 1.140625 -4.140625 0.3125 -3.171875 0.3125 -2.03125 C 0.3125 -0.84375 1.1875 0.09375 2.3125 0.09375 C 2.75 0.09375 3.265625 -0.015625 3.78125 -0.34375 L 3.734375 -0.953125 C 3.171875 -0.5625 2.640625 -0.484375 2.328125 -0.484375 C 1.578125 -0.484375 1 -1.140625 0.984375 -1.96875 Z M 1.03125 -2.5 C 1.171875 -3.0625 1.609375 -3.546875 2.171875 -3.546875 C 2.515625 -3.546875 3.125 -3.40625 3.296875 -2.5 Z M 1.03125 -2.5 "/>
</g>
<g id="glyph-3-3">
<path d="M 3.78125 -0.96875 C 3.34375 -0.671875 2.875 -0.515625 2.328125 -0.515625 C 1.5625 -0.515625 1.0625 -1.140625 1.0625 -2 C 1.0625 -2.6875 1.40625 -3.53125 2.375 -3.53125 C 2.9375 -3.53125 3.21875 -3.421875 3.671875 -3.109375 L 3.78125 -3.734375 C 3.28125 -4.03125 3 -4.140625 2.359375 -4.140625 C 1.078125 -4.140625 0.328125 -3.0625 0.328125 -1.984375 C 0.328125 -0.875 1.15625 0.09375 2.328125 0.09375 C 2.953125 0.09375 3.421875 -0.09375 3.828125 -0.328125 Z M 3.78125 -0.96875 "/>
</g>
<g id="glyph-3-4">
<path d="M 3.6875 -2.59375 C 3.6875 -3.484375 3.046875 -4.140625 2.15625 -4.140625 C 1.5625 -4.140625 1.140625 -3.984375 0.703125 -3.734375 L 0.765625 -3.109375 C 1.203125 -3.4375 1.65625 -3.5625 2.140625 -3.5625 C 2.640625 -3.5625 2.953125 -3.171875 2.953125 -2.578125 L 2.953125 -2.203125 C 1.40625 -2.171875 0.390625 -1.765625 0.390625 -1.046875 C 0.390625 -0.625 0.671875 0.09375 1.453125 0.09375 C 1.625 0.09375 2.40625 0.078125 2.984375 -0.34375 L 2.984375 0 L 3.6875 0 Z M 2.953125 -1.25 C 2.953125 -1.0625 2.953125 -0.84375 2.625 -0.65625 C 2.40625 -0.515625 2.109375 -0.484375 1.921875 -0.484375 C 1.46875 -0.484375 1.078125 -0.703125 1.078125 -1.0625 C 1.078125 -1.6875 2.828125 -1.71875 2.953125 -1.71875 Z M 2.953125 -1.25 "/>
</g>
<g id="glyph-3-5">
<path d="M 1.625 -3.421875 L 2.921875 -3.421875 L 2.921875 -3.984375 L 1.625 -3.984375 L 1.625 -5.125 L 0.953125 -5.125 L 0.953125 -3.984375 L 0.171875 -3.984375 L 0.171875 -3.421875 L 0.9375 -3.421875 L 0.9375 -1.125 C 0.9375 -0.59375 1.046875 0.09375 1.703125 0.09375 C 2.09375 0.09375 2.5625 0.015625 3.0625 -0.234375 L 2.921875 -0.796875 C 2.6875 -0.625 2.375 -0.515625 2.09375 -0.515625 C 1.734375 -0.515625 1.625 -0.828125 1.625 -1.296875 Z M 1.625 -3.421875 "/>
</g>
<g id="glyph-3-6">
<path d="M 3.171875 -3.84375 C 2.609375 -4.09375 2.203125 -4.140625 1.828125 -4.140625 C 1.625 -4.140625 0.3125 -4.140625 0.3125 -2.953125 C 0.3125 -2.515625 0.5625 -2.25 0.65625 -2.15625 C 1 -1.859375 1.234375 -1.8125 1.84375 -1.6875 C 2.140625 -1.640625 2.640625 -1.546875 2.640625 -1.078125 C 2.640625 -0.5 1.921875 -0.5 1.796875 -0.5 C 1.28125 -0.5 0.765625 -0.6875 0.375 -0.953125 L 0.265625 -0.296875 C 0.796875 -0.015625 1.34375 0.09375 1.796875 0.09375 C 2.390625 0.09375 3.3125 -0.09375 3.3125 -1.15625 C 3.3125 -1.46875 3.1875 -1.78125 2.875 -2.046875 C 2.578125 -2.3125 2.3125 -2.375 1.75 -2.46875 C 1.421875 -2.53125 0.984375 -2.625 0.984375 -3.046875 C 0.984375 -3.5625 1.609375 -3.5625 1.75 -3.5625 C 2.40625 -3.5625 2.796875 -3.359375 3.046875 -3.21875 Z M 3.171875 -3.84375 "/>
</g>
<g id="glyph-3-7">
<path d="M 4.015625 -6.21875 L 3.296875 -6.21875 L 3.296875 -3.59375 C 2.796875 -4.015625 2.21875 -4.078125 1.921875 -4.078125 C 1.015625 -4.078125 0.328125 -3.140625 0.328125 -1.984375 C 0.328125 -0.828125 1.015625 0.09375 1.890625 0.09375 C 2.15625 0.09375 2.71875 0.03125 3.265625 -0.46875 L 3.265625 0 L 4.015625 0 Z M 3.265625 -1.265625 C 3.265625 -1.09375 3.265625 -1.078125 3.171875 -0.953125 C 2.921875 -0.625 2.625 -0.484375 2.296875 -0.484375 C 1.71875 -0.484375 1.0625 -0.90625 1.0625 -1.984375 C 1.0625 -3.125 1.828125 -3.5 2.390625 -3.5 C 2.8125 -3.5 3.09375 -3.265625 3.265625 -3.03125 Z M 3.265625 -1.265625 "/>
</g>
<g id="glyph-3-8">
<path d="M 6.578125 -2.65625 C 6.578125 -3.328125 6.40625 -4.078125 5.3125 -4.078125 C 4.5625 -4.078125 4.140625 -3.625 3.921875 -3.34375 C 3.859375 -3.53125 3.671875 -4.078125 2.765625 -4.078125 C 2.046875 -4.078125 1.625 -3.671875 1.421875 -3.40625 L 1.421875 -4.03125 L 0.71875 -4.03125 L 0.71875 0 L 1.46875 0 L 1.46875 -2.1875 C 1.46875 -2.78125 1.703125 -3.5 2.390625 -3.5 C 3.28125 -3.5 3.28125 -2.859375 3.28125 -2.59375 L 3.28125 0 L 4.03125 0 L 4.03125 -2.1875 C 4.03125 -2.78125 4.265625 -3.5 4.9375 -3.5 C 5.84375 -3.5 5.84375 -2.859375 5.84375 -2.59375 L 5.84375 0 L 6.578125 0 Z M 6.578125 -2.65625 "/>
</g>
<g id="glyph-3-9">
<path d="M 4.328125 -1.96875 C 4.328125 -3.140625 3.4375 -4.140625 2.296875 -4.140625 C 1.1875 -4.140625 0.265625 -3.171875 0.265625 -1.96875 C 0.265625 -0.796875 1.203125 0.09375 2.296875 0.09375 C 3.40625 0.09375 4.328125 -0.8125 4.328125 -1.96875 Z M 2.3125 -0.515625 C 1.609375 -0.515625 1.015625 -1.046875 1.015625 -2.0625 C 1.015625 -3.109375 1.6875 -3.546875 2.296875 -3.546875 C 2.9375 -3.546875 3.59375 -3.09375 3.59375 -2.0625 C 3.59375 -1.015625 2.953125 -0.515625 2.3125 -0.515625 Z M 2.3125 -0.515625 "/>
</g>
<g id="glyph-3-10">
<path d="M 4.03125 -3.984375 L 3.28125 -3.984375 L 3.28125 -1.390625 C 3.28125 -0.671875 2.71875 -0.4375 2.171875 -0.4375 C 1.53125 -0.4375 1.46875 -0.640625 1.46875 -1.015625 L 1.46875 -3.984375 L 0.71875 -3.984375 L 0.71875 -0.984375 C 0.71875 -0.21875 1.03125 0.09375 1.671875 0.09375 C 2.1875 0.09375 2.890625 -0.046875 3.3125 -0.4375 L 3.3125 0 L 4.03125 0 Z M 4.03125 -3.984375 "/>
</g>
</g>
</defs>
<g fill="rgb(8.233643%, 9.020996%, 23.922729%)" fill-opacity="1">
<use xlink:href="#glyph-0-0" x="13.283" y="19.51"/>
<use xlink:href="#glyph-0-1" x="18.21452" y="19.51"/>
<use xlink:href="#glyph-0-2" x="23.245567" y="19.51"/>
</g>
<g fill="rgb(8.233643%, 9.020996%, 23.922729%)" fill-opacity="1">
<use xlink:href="#glyph-0-3" x="31.118963" y="19.51"/>
<use xlink:href="#glyph-0-4" x="36.15001" y="19.51"/>
<use xlink:href="#glyph-0-2" x="41.181057" y="19.51"/>
<use xlink:href="#glyph-0-5" x="45.763784" y="19.51"/>
<use xlink:href="#glyph-0-6" x="49.101078" y="19.51"/>
<use xlink:href="#glyph-0-7" x="53.584278" y="19.51"/>
</g>
<g fill="rgb(8.233643%, 9.020996%, 23.922729%)" fill-opacity="1">
<use xlink:href="#glyph-1-0" x="60.418" y="19.51"/>
<use xlink:href="#glyph-1-1" x="66.714206" y="19.51"/>
<use xlink:href="#glyph-1-2" x="71.474468" y="19.51"/>
<use xlink:href="#glyph-1-3" x="75.902076" y="19.51"/>
</g>
<g fill="rgb(8.233643%, 9.020996%, 23.922729%)" fill-opacity="1">
<use xlink:href="#glyph-1-4" x="82.304982" y="19.51"/>
</g>
<g fill="rgb(8.233643%, 9.020996%, 23.922729%)" fill-opacity="1">
<use xlink:href="#glyph-1-5" x="87.056278" y="19.51"/>
<use xlink:href="#glyph-1-4" x="89.256632" y="19.51"/>
</g>
<g fill="rgb(8.233643%, 9.020996%, 23.922729%)" fill-opacity="1">
<use xlink:href="#glyph-1-3" x="97.092369" y="19.51"/>
<use xlink:href="#glyph-1-1" x="100.4198" y="19.51"/>
<use xlink:href="#glyph-1-6" x="105.180062" y="19.51"/>
</g>
<g fill="rgb(8.233643%, 9.020996%, 23.922729%)" fill-opacity="1">
<use xlink:href="#glyph-1-7" x="112.351389" y="19.51"/>
<use xlink:href="#glyph-1-2" x="116.44724" y="19.51"/>
<use xlink:href="#glyph-1-3" x="120.874849" y="19.51"/>
</g>
<g fill="rgb(8.233643%, 9.020996%, 23.922729%)" fill-opacity="1">
<use xlink:href="#glyph-1-7" x="127.268788" y="19.51"/>
<use xlink:href="#glyph-1-1" x="131.36464" y="19.51"/>
<use xlink:href="#glyph-1-2" x="136.124902" y="19.51"/>
<use xlink:href="#glyph-1-8" x="140.55251" y="19.51"/>
<use xlink:href="#glyph-1-6" x="144.085272" y="19.51"/>
<use xlink:href="#glyph-1-9" x="148.181123" y="19.51"/>
</g>
<path fill="none" stroke-width="0.69739" stroke-linecap="butt" stroke-linejoin="miter" stroke="rgb(41.96167%, 39.216614%, 44.706726%)" stroke-opacity="0.55" stroke-miterlimit="10" d="M 119.055125 7.086406 L 119.055125 162.992656 " transform="matrix(1, 0, 0, -1, 31.023, 201.52)"/>
<g fill="rgb(41.96167%, 39.216614%, 44.706726%)" fill-opacity="1">
<use xlink:href="#glyph-2-0" x="148.226" y="33.591"/>
</g>
<g fill="rgb(19.999695%, 19.999695%, 19.999695%)" fill-opacity="1">
<use xlink:href="#glyph-0-8" x="13.283" y="62.03"/>
<use xlink:href="#glyph-0-9" x="17.118826" y="62.03"/>
<use xlink:href="#glyph-0-10" x="22.050346" y="62.03"/>
</g>
<g fill="rgb(19.999695%, 19.999695%, 19.999695%)" fill-opacity="1">
<use xlink:href="#glyph-3-0" x="28.958" y="62.03"/>
<use xlink:href="#glyph-3-1" x="35.254206" y="62.03"/>
<use xlink:href="#glyph-3-2" x="40.014468" y="62.03"/>
</g>
<path fill-rule="nonzero" fill="rgb(59.606934%, 14.509583%, 59.606934%)" fill-opacity="0.55" stroke-width="0.59776" stroke-linecap="butt" stroke-linejoin="miter" stroke="rgb(59.606934%, 14.509583%, 59.606934%)" stroke-opacity="0.7" stroke-miterlimit="10" d="M 119.055125 137.773906 L 119.055125 145.695781 C 119.055125 146.793437 118.1645 147.687969 117.062938 147.687969 L 60.742625 147.687969 C 59.641063 147.687969 58.750438 146.793437 58.750438 145.695781 L 58.750438 137.773906 C 58.750438 136.672344 59.641063 135.781719 60.742625 135.781719 L 117.062938 135.781719 C 118.1645 135.781719 119.055125 136.672344 119.055125 137.773906 Z M 119.055125 137.773906 " transform="matrix(1, 0, 0, -1, 31.023, 201.52)"/>
<g fill="rgb(19.999695%, 19.999695%, 19.999695%)" fill-opacity="1">
<use xlink:href="#glyph-0-8" x="13.283" y="91.793"/>
<use xlink:href="#glyph-0-11" x="17.118826" y="91.793"/>
<use xlink:href="#glyph-0-10" x="22.050346" y="91.793"/>
</g>
<g fill="rgb(19.999695%, 19.999695%, 19.999695%)" fill-opacity="1">
<use xlink:href="#glyph-3-3" x="28.958" y="91.793"/>
<use xlink:href="#glyph-3-4" x="33.053852" y="91.793"/>
<use xlink:href="#glyph-3-5" x="37.48146" y="91.793"/>
</g>
<path fill-rule="nonzero" fill="rgb(59.606934%, 14.509583%, 59.606934%)" fill-opacity="0.55" stroke-width="0.59776" stroke-linecap="butt" stroke-linejoin="miter" stroke="rgb(59.606934%, 14.509583%, 59.606934%)" stroke-opacity="0.7" stroke-miterlimit="10" d="M 119.055125 108.008281 L 119.055125 115.930156 C 119.055125 117.031719 118.1645 117.922344 117.062938 117.922344 L 109.965281 117.922344 C 108.863719 117.922344 107.973094 117.031719 107.973094 115.930156 L 107.973094 108.008281 C 107.973094 106.910625 108.863719 106.016094 109.965281 106.016094 L 117.062938 106.016094 C 118.1645 106.016094 119.055125 106.910625 119.055125 108.008281 Z M 119.055125 108.008281 " transform="matrix(1, 0, 0, -1, 31.023, 201.52)"/>
<g fill="rgb(19.999695%, 19.999695%, 19.999695%)" fill-opacity="1">
<use xlink:href="#glyph-0-8" x="13.283" y="121.557"/>
<use xlink:href="#glyph-0-12" x="17.118826" y="121.557"/>
<use xlink:href="#glyph-0-10" x="22.050346" y="121.557"/>
</g>
<g fill="rgb(19.999695%, 19.999695%, 19.999695%)" fill-opacity="1">
<use xlink:href="#glyph-3-3" x="28.958" y="121.557"/>
<use xlink:href="#glyph-3-1" x="33.053852" y="121.557"/>
<use xlink:href="#glyph-3-4" x="37.814113" y="121.557"/>
<use xlink:href="#glyph-3-6" x="42.241722" y="121.557"/>
<use xlink:href="#glyph-3-2" x="45.774483" y="121.557"/>
<use xlink:href="#glyph-3-7" x="49.870335" y="121.557"/>
</g>
<path fill-rule="nonzero" fill="rgb(59.606934%, 14.509583%, 59.606934%)" fill-opacity="0.55" stroke-width="0.59776" stroke-linecap="butt" stroke-linejoin="miter" stroke="rgb(59.606934%, 14.509583%, 59.606934%)" stroke-opacity="0.7" stroke-miterlimit="10" d="M 119.055125 78.246562 L 119.055125 86.164531 C 119.055125 87.266094 118.1645 88.156719 117.062938 88.156719 L 96.602 88.156719 C 95.500438 88.156719 94.605906 87.266094 94.605906 86.164531 L 94.605906 78.246562 C 94.605906 77.145 95.500438 76.254375 96.602 76.254375 L 117.062938 76.254375 C 118.1645 76.254375 119.055125 77.145 119.055125 78.246562 Z M 119.055125 78.246562 " transform="matrix(1, 0, 0, -1, 31.023, 201.52)"/>
<g fill="rgb(19.999695%, 19.999695%, 19.999695%)" fill-opacity="1">
<use xlink:href="#glyph-0-8" x="13.283" y="151.321"/>
<use xlink:href="#glyph-0-13" x="17.118826" y="151.321"/>
<use xlink:href="#glyph-0-10" x="22.050346" y="151.321"/>
</g>
<g fill="rgb(19.999695%, 19.999695%, 19.999695%)" fill-opacity="1">
<use xlink:href="#glyph-3-5" x="28.958" y="151.321"/>
<use xlink:href="#glyph-3-1" x="32.285431" y="151.321"/>
<use xlink:href="#glyph-3-2" x="37.045693" y="151.321"/>
</g>
<path fill-rule="nonzero" fill="rgb(59.606934%, 14.509583%, 59.606934%)" fill-opacity="0.55" stroke-width="0.59776" stroke-linecap="butt" stroke-linejoin="miter" stroke="rgb(59.606934%, 14.509583%, 59.606934%)" stroke-opacity="0.7" stroke-miterlimit="10" d="M 119.055125 48.480937 L 119.055125 56.402812 C 119.055125 57.504375 118.1645 58.395 117.062938 58.395 L 74.105906 58.395 C 73.00825 58.395 72.113719 57.504375 72.113719 56.402812 L 72.113719 48.480937 C 72.113719 47.379375 73.00825 46.48875 74.105906 46.48875 L 117.062938 46.48875 C 118.1645 46.48875 119.055125 47.379375 119.055125 48.480937 Z M 119.055125 48.480937 " transform="matrix(1, 0, 0, -1, 31.023, 201.52)"/>
<g fill="rgb(19.999695%, 19.999695%, 19.999695%)" fill-opacity="1">
<use xlink:href="#glyph-0-8" x="13.283" y="181.085"/>
<use xlink:href="#glyph-0-14" x="17.118826" y="181.085"/>
<use xlink:href="#glyph-0-10" x="22.050346" y="181.085"/>
</g>
<g fill="rgb(19.999695%, 19.999695%, 19.999695%)" fill-opacity="1">
<use xlink:href="#glyph-3-8" x="28.958" y="181.085"/>
<use xlink:href="#glyph-3-9" x="36.277272" y="181.085"/>
<use xlink:href="#glyph-3-10" x="40.885105" y="181.085"/>
<use xlink:href="#glyph-3-6" x="45.645367" y="181.085"/>
<use xlink:href="#glyph-3-2" x="49.178129" y="181.085"/>
</g>
<path fill-rule="nonzero" fill="rgb(59.606934%, 14.509583%, 59.606934%)" fill-opacity="0.55" stroke-width="0.59776" stroke-linecap="butt" stroke-linejoin="miter" stroke="rgb(59.606934%, 14.509583%, 59.606934%)" stroke-opacity="0.7" stroke-miterlimit="10" d="M 119.055125 18.715312 L 119.055125 26.637187 C 119.055125 27.73875 119.949656 28.629375 121.047313 28.629375 L 145.098094 28.629375 C 146.199656 28.629375 147.090281 27.73875 147.090281 26.637187 L 147.090281 18.715312 C 147.090281 17.617656 146.199656 16.723125 145.098094 16.723125 L 121.047313 16.723125 C 119.949656 16.723125 119.055125 17.617656 119.055125 18.715312 Z M 119.055125 18.715312 " transform="matrix(1, 0, 0, -1, 31.023, 201.52)"/>
<g fill="rgb(59.606934%, 14.509583%, 59.606934%)" fill-opacity="1">
<use xlink:href="#glyph-0-15" x="61.178" y="62.901"/>
<use xlink:href="#glyph-0-9" x="64.465979" y="62.901"/>
<use xlink:href="#glyph-0-16" x="69.397499" y="62.901"/>
<use xlink:href="#glyph-0-17" x="72.137631" y="62.901"/>
<use xlink:href="#glyph-0-14" x="77.069151" y="62.901"/>
</g>
<g fill="rgb(59.606934%, 14.509583%, 59.606934%)" fill-opacity="1">
<use xlink:href="#glyph-0-15" x="110.401" y="92.665"/>
<use xlink:href="#glyph-0-18" x="113.688979" y="92.665"/>
<use xlink:href="#glyph-0-16" x="118.620499" y="92.665"/>
<use xlink:href="#glyph-0-12" x="121.360631" y="92.665"/>
<use xlink:href="#glyph-0-13" x="126.292151" y="92.665"/>
</g>
<g fill="rgb(59.606934%, 14.509583%, 59.606934%)" fill-opacity="1">
<use xlink:href="#glyph-0-15" x="97.036" y="122.429"/>
<use xlink:href="#glyph-0-18" x="100.323979" y="122.429"/>
<use xlink:href="#glyph-0-16" x="105.255499" y="122.429"/>
<use xlink:href="#glyph-0-19" x="107.995631" y="122.429"/>
<use xlink:href="#glyph-0-14" x="112.927151" y="122.429"/>
</g>
<g fill="rgb(59.606934%, 14.509583%, 59.606934%)" fill-opacity="1">
<use xlink:href="#glyph-0-15" x="74.543" y="152.192"/>
<use xlink:href="#glyph-0-9" x="77.830979" y="152.192"/>
<use xlink:href="#glyph-0-16" x="82.762499" y="152.192"/>
<use xlink:href="#glyph-0-13" x="85.502631" y="152.192"/>
<use xlink:href="#glyph-0-13" x="90.434151" y="152.192"/>
</g>
<g fill="rgb(59.606934%, 14.509583%, 59.606934%)" fill-opacity="1">
<use xlink:href="#glyph-0-18" x="185.884" y="181.956"/>
<use xlink:href="#glyph-0-16" x="190.81552" y="181.956"/>
<use xlink:href="#glyph-0-17" x="193.555652" y="181.956"/>
<use xlink:href="#glyph-0-20" x="198.487172" y="181.956"/>
</g>
</svg>
