<?xml version="1.0" encoding="UTF-8"?>
<svg xmlns="http://www.w3.org/2000/svg" xmlns:xlink="http://www.w3.org/1999/xlink" width="429.494pt" height="150.15pt" viewBox="0 0 429.494 150.15">
<defs>
<g>
<g id="glyph-0-0">
<path d="M 2.140625 -2.796875 L 4.5 -2.796875 C 4.765625 -2.796875 4.921875 -2.859375 4.921875 -3.203125 C 4.921875 -3.546875 4.8125 -3.625 4.5 -3.625 L 2.140625 -3.625 L 2.140625 -5.296875 L 2.578125 -5.296875 C 3.28125 -5.296875 3.984375 -5.265625 4.6875 -5.265625 C 5 -5.265625 5.203125 -5.265625 5.203125 -5.6875 L 5.203125 -5.765625 C 5.203125 -6.046875 5.140625 -6.203125 4.765625 -6.203125 L 1.25 -6.203125 C 0.921875 -6.203125 0.8125 -6.09375 0.8125 -5.765625 L 0.8125 -0.4375 C 0.8125 -0.109375 0.921875 0 1.25 0 L 4.90625 0 C 5.25 0 5.34375 -0.109375 5.34375 -0.4375 L 5.34375 -0.5625 C 5.34375 -0.984375 5.125 -0.984375 4.828125 -0.984375 C 4.375 -0.984375 3.90625 -0.96875 3.4375 -0.96875 C 3.21875 -0.96875 2.296875 -0.953125 2.140625 -0.953125 Z M 2.140625 -2.796875 "/>
</g>
<g id="glyph-0-1">
<path d="M 2.703125 -2.125 L 4 -3.71875 C 4.09375 -3.828125 4.09375 -3.859375 4.09375 -3.90625 C 4.09375 -4.109375 3.90625 -4.109375 3.78125 -4.109375 L 3.390625 -4.109375 C 3.234375 -4.109375 3.125 -4.109375 3 -3.96875 C 2.953125 -3.921875 2.375 -3.140625 2.21875 -2.9375 L 1.4375 -3.90625 C 1.296875 -4.09375 1.1875 -4.109375 0.984375 -4.109375 L 0.59375 -4.109375 C 0.46875 -4.109375 0.28125 -4.109375 0.28125 -3.90625 C 0.28125 -3.84375 0.3125 -3.8125 0.375 -3.734375 L 1.71875 -2.125 L 0.3125 -0.375 C 0.25 -0.3125 0.21875 -0.265625 0.21875 -0.203125 C 0.21875 0 0.40625 0 0.53125 0 L 0.921875 0 C 1.21875 0 1.234375 -0.03125 1.4375 -0.328125 L 2.203125 -1.46875 L 3.125 -0.171875 C 3.25 0 3.359375 0 3.546875 0 L 3.9375 0 C 4.0625 0 4.25 0 4.25 -0.203125 C 4.25 -0.265625 4.21875 -0.3125 4.15625 -0.390625 Z M 2.703125 -2.125 "/>
</g>
<g id="glyph-0-2">
<path d="M 4.15625 -2.828125 C 4.15625 -4.25 2.796875 -4.265625 2.34375 -4.265625 C 1.921875 -4.265625 1.484375 -4.21875 0.875 -3.96875 C 0.6875 -3.890625 0.640625 -3.859375 0.640625 -3.765625 C 0.640625 -3.703125 0.703125 -3.1875 0.703125 -3.109375 C 0.71875 -3.0625 0.765625 -3.015625 0.828125 -3.015625 C 0.875 -3.015625 0.890625 -3.046875 0.921875 -3.0625 C 1.3125 -3.46875 1.765625 -3.671875 2.3125 -3.671875 C 2.796875 -3.671875 2.9375 -3.375 2.9375 -2.84375 L 2.9375 -2.53125 C 2.625 -2.53125 0.28125 -2.515625 0.28125 -1.1875 C 0.28125 -0.5625 0.78125 0.09375 1.5625 0.09375 C 1.875 0.09375 2.546875 0.015625 2.96875 -0.609375 L 2.96875 -0.4375 C 2.96875 -0.140625 3.03125 0 3.40625 0 L 3.734375 0 C 4.078125 0 4.15625 -0.109375 4.15625 -0.4375 Z M 2.9375 -1.375 C 2.9375 -0.546875 2.09375 -0.546875 2.0625 -0.546875 C 1.6875 -0.546875 1.4375 -0.875 1.4375 -1.203125 C 1.4375 -2.09375 2.6875 -2.15625 2.9375 -2.15625 Z M 2.9375 -1.375 "/>
</g>
<g id="glyph-0-3">
<path d="M 4.09375 -0.453125 C 4.09375 -0.546875 4.0625 -0.953125 4.046875 -1.078125 C 4.046875 -1.109375 4.03125 -1.1875 3.9375 -1.1875 C 3.90625 -1.1875 3.890625 -1.1875 3.796875 -1.109375 C 3.640625 -0.96875 3.21875 -0.59375 2.484375 -0.59375 C 1.546875 -0.59375 1.546875 -1.5 1.546875 -2.078125 C 1.546875 -2.8125 1.59375 -3.5625 2.515625 -3.5625 C 3.09375 -3.5625 3.34375 -3.421875 3.65625 -3.140625 C 3.765625 -3.046875 3.78125 -3.046875 3.828125 -3.046875 C 3.90625 -3.046875 3.921875 -3.125 3.9375 -3.171875 C 3.953125 -3.234375 4.046875 -3.734375 4.046875 -3.78125 C 4.046875 -3.859375 3.984375 -3.90625 3.828125 -3.96875 C 3.40625 -4.171875 3.125 -4.265625 2.5 -4.265625 C 1.171875 -4.265625 0.328125 -3.625 0.328125 -2.0625 C 0.328125 -0.578125 1.109375 0.09375 2.453125 0.09375 C 2.703125 0.09375 3.234375 0.09375 3.84375 -0.21875 C 4.09375 -0.34375 4.09375 -0.359375 4.09375 -0.453125 Z M 4.09375 -0.453125 "/>
</g>
<g id="glyph-0-4">
<path d="M 1.953125 -3.46875 L 2.75 -3.46875 C 2.859375 -3.46875 3.1875 -3.46875 3.1875 -3.78125 C 3.1875 -4.109375 2.859375 -4.109375 2.75 -4.109375 L 1.953125 -4.109375 L 1.953125 -4.859375 C 1.953125 -5.140625 1.890625 -5.28125 1.53125 -5.28125 L 1.25 -5.28125 C 0.921875 -5.28125 0.8125 -5.1875 0.8125 -4.859375 L 0.8125 -4.109375 L 0.609375 -4.109375 C 0.515625 -4.109375 0.171875 -4.109375 0.171875 -3.78125 C 0.171875 -3.46875 0.5 -3.46875 0.609375 -3.46875 L 0.796875 -3.46875 L 0.796875 -1.1875 C 0.796875 -0.28125 1.109375 0.09375 1.734375 0.09375 C 1.8125 0.09375 2.203125 0.09375 2.671875 -0.046875 C 2.828125 -0.09375 3.34375 -0.25 3.34375 -0.421875 C 3.34375 -0.453125 3.328125 -0.515625 3.28125 -0.703125 C 3.234375 -0.875 3.203125 -0.9375 3.125 -0.9375 C 3.078125 -0.9375 3.078125 -0.921875 3.015625 -0.875 C 2.921875 -0.796875 2.6875 -0.59375 2.3125 -0.59375 C 2.09375 -0.59375 1.953125 -0.75 1.953125 -1.34375 Z M 1.953125 -3.46875 "/>
</g>
<g id="glyph-0-5">
<path d="M 7.234375 -2.921875 C 7.234375 -3.84375 6.828125 -4.203125 5.921875 -4.203125 C 5.28125 -4.203125 4.796875 -3.90625 4.46875 -3.3125 C 4.328125 -4.171875 3.5625 -4.203125 3.1875 -4.203125 C 3.015625 -4.203125 2.640625 -4.203125 2.234375 -3.90625 C 1.953125 -3.703125 1.78125 -3.421875 1.71875 -3.28125 L 1.703125 -3.28125 L 1.703125 -3.734375 C 1.703125 -4.015625 1.640625 -4.15625 1.28125 -4.15625 L 0.96875 -4.15625 C 0.640625 -4.15625 0.53125 -4.0625 0.53125 -3.734375 L 0.53125 -0.4375 C 0.53125 -0.109375 0.640625 0 0.96875 0 L 1.328125 0 C 1.671875 0 1.765625 -0.109375 1.765625 -0.4375 L 1.765625 -2.40625 C 1.765625 -3.21875 2.3125 -3.5625 2.75 -3.5625 C 3.171875 -3.5625 3.28125 -3.375 3.28125 -2.890625 L 3.28125 -0.4375 C 3.28125 -0.109375 3.375 0 3.703125 0 L 4.0625 0 C 4.40625 0 4.5 -0.109375 4.5 -0.4375 L 4.5 -2.40625 C 4.5 -3.21875 5.046875 -3.5625 5.484375 -3.5625 C 5.90625 -3.5625 6.015625 -3.375 6.015625 -2.890625 L 6.015625 -0.4375 C 6.015625 -0.109375 6.109375 0 6.4375 0 L 6.796875 0 C 7.140625 0 7.234375 -0.109375 7.234375 -0.4375 Z M 7.234375 -2.921875 "/>
</g>
<g id="glyph-0-6">
<path d="M 4.484375 -2.921875 C 4.484375 -3.84375 4.09375 -4.203125 3.171875 -4.203125 C 2.28125 -4.203125 1.859375 -3.59375 1.734375 -3.34375 L 1.734375 -5.796875 C 1.734375 -6.078125 1.671875 -6.21875 1.296875 -6.21875 L 0.96875 -6.21875 C 0.640625 -6.21875 0.53125 -6.125 0.53125 -5.796875 L 0.53125 -0.4375 C 0.53125 -0.109375 0.640625 0 0.96875 0 L 1.328125 0 C 1.671875 0 1.765625 -0.109375 1.765625 -0.4375 L 1.765625 -2.40625 C 1.765625 -3.1875 2.28125 -3.5625 2.75 -3.5625 C 3.171875 -3.5625 3.265625 -3.359375 3.265625 -2.890625 L 3.265625 -0.4375 C 3.265625 -0.140625 3.328125 0 3.6875 0 L 4.046875 0 C 4.390625 0 4.484375 -0.109375 4.484375 -0.4375 Z M 4.484375 -2.921875 "/>
</g>
<g id="glyph-0-7">
<path d="M 2.421875 -3.953125 C 2.21875 -4 1.671875 -4.203125 1.671875 -4.71875 C 1.671875 -5.484375 2.4375 -5.5 2.734375 -5.5 C 3.234375 -5.5 3.6875 -5.375 4.125 -4.953125 C 4.265625 -4.8125 4.28125 -4.8125 4.3125 -4.8125 C 4.375 -4.8125 4.40625 -4.828125 4.4375 -4.96875 L 4.578125 -5.75 C 4.59375 -5.828125 4.59375 -5.84375 4.59375 -5.859375 C 4.59375 -5.9375 4.578125 -5.953125 4.359375 -6.0625 C 3.71875 -6.375 3.1875 -6.421875 2.734375 -6.421875 C 1.9375 -6.421875 0.546875 -6.234375 0.546875 -4.5625 C 0.546875 -3.921875 0.875 -3.5 1.046875 -3.328125 C 1.5 -2.859375 1.921875 -2.765625 2.625 -2.609375 C 3.125 -2.5 3.328125 -2.453125 3.53125 -2.265625 C 3.609375 -2.171875 3.796875 -1.984375 3.796875 -1.65625 C 3.796875 -0.8125 3.03125 -0.78125 2.734375 -0.78125 C 1.984375 -0.78125 1.328125 -1.078125 0.875 -1.484375 C 0.765625 -1.59375 0.75 -1.59375 0.71875 -1.59375 C 0.65625 -1.59375 0.625 -1.5625 0.59375 -1.4375 L 0.453125 -0.65625 C 0.4375 -0.578125 0.4375 -0.5625 0.4375 -0.53125 C 0.4375 -0.34375 1.375 -0.03125 1.421875 -0.015625 C 2.015625 0.171875 2.5 0.203125 2.734375 0.203125 C 4.078125 0.203125 4.921875 -0.40625 4.921875 -1.796875 C 4.921875 -2.796875 4.171875 -3.546875 3.28125 -3.765625 Z M 2.421875 -3.953125 "/>
</g>
<g id="glyph-0-8">
<path d="M 4.640625 -2.015625 C 4.640625 -3.484375 3.921875 -4.265625 2.46875 -4.265625 C 0.96875 -4.265625 0.28125 -3.46875 0.28125 -2.015625 C 0.28125 -0.5625 1.046875 0.09375 2.453125 0.09375 C 3.859375 0.09375 4.640625 -0.546875 4.640625 -2.015625 Z M 2.46875 -0.59375 C 1.5 -0.59375 1.5 -1.40625 1.5 -2.125 C 1.5 -2.8125 1.5 -3.609375 2.453125 -3.609375 C 3.421875 -3.609375 3.421875 -2.828125 3.421875 -2.125 C 3.421875 -1.421875 3.421875 -0.59375 2.46875 -0.59375 Z M 2.46875 -0.59375 "/>
</g>
<g id="glyph-0-9">
<path d="M 1.96875 -3.46875 L 2.390625 -3.46875 C 2.5 -3.46875 2.828125 -3.46875 2.828125 -3.78125 C 2.828125 -4.109375 2.5 -4.109375 2.390625 -4.109375 L 1.9375 -4.109375 L 1.9375 -5.078125 C 1.9375 -5.3125 1.9375 -5.671875 2.515625 -5.671875 C 2.8125 -5.671875 2.984375 -5.59375 3.171875 -5.421875 C 3.234375 -5.359375 3.25 -5.34375 3.296875 -5.34375 C 3.421875 -5.34375 3.421875 -5.421875 3.421875 -5.5625 L 3.421875 -5.984375 C 3.421875 -6.203125 3.40625 -6.203125 3.109375 -6.265625 C 2.84375 -6.328125 2.65625 -6.328125 2.515625 -6.328125 C 1.84375 -6.328125 0.765625 -6.171875 0.765625 -4.828125 L 0.765625 -4.109375 C 0.578125 -4.109375 0.265625 -4.109375 0.265625 -3.78125 C 0.265625 -3.46875 0.578125 -3.46875 0.765625 -3.46875 L 0.765625 -0.4375 C 0.765625 -0.109375 0.875 0 1.203125 0 L 1.53125 0 C 1.875 0 1.96875 -0.109375 1.96875 -0.4375 Z M 1.96875 -3.46875 "/>
</g>
<g id="glyph-1-0">
<path d="M 3.484375 -1.53125 C 3.484375 -2.453125 2.75 -3.203125 1.84375 -3.203125 C 0.9375 -3.203125 0.203125 -2.4375 0.203125 -1.53125 C 0.203125 -0.640625 0.953125 0.0625 1.84375 0.0625 C 2.75 0.0625 3.484375 -0.640625 3.484375 -1.53125 Z M 1.84375 -0.40625 C 1.296875 -0.40625 0.8125 -0.8125 0.8125 -1.609375 C 0.8125 -2.390625 1.328125 -2.734375 1.84375 -2.734375 C 2.375 -2.734375 2.875 -2.375 2.875 -1.609375 C 2.875 -0.8125 2.390625 -0.40625 1.84375 -0.40625 Z M 1.84375 -0.40625 "/>
</g>
<g id="glyph-1-1">
<path d="M 3.234375 -2.0625 C 3.234375 -2.609375 3.078125 -3.15625 2.21875 -3.15625 C 1.828125 -3.15625 1.4375 -3 1.140625 -2.640625 L 1.140625 -3.140625 L 0.578125 -3.140625 L 0.578125 0 L 1.1875 0 L 1.1875 -1.6875 C 1.1875 -2.15625 1.375 -2.703125 1.921875 -2.703125 C 2.640625 -2.703125 2.640625 -2.21875 2.640625 -2.015625 L 2.640625 0 L 3.234375 0 Z M 3.234375 -2.0625 "/>
</g>
<g id="glyph-1-2">
<path d="M 3 -0.765625 C 2.609375 -0.484375 2.171875 -0.390625 1.875 -0.390625 C 1.265625 -0.390625 0.796875 -0.890625 0.78125 -1.53125 L 3.0625 -1.53125 C 3.0625 -1.84375 3.03125 -2.3125 2.765625 -2.703125 C 2.515625 -3.0625 2.09375 -3.203125 1.75 -3.203125 C 0.90625 -3.203125 0.25 -2.453125 0.25 -1.5625 C 0.25 -0.671875 0.9375 0.0625 1.859375 0.0625 C 2.265625 0.0625 2.6875 -0.046875 3.03125 -0.265625 Z M 0.828125 -1.9375 C 0.984375 -2.5 1.40625 -2.734375 1.75 -2.734375 C 2.0625 -2.734375 2.515625 -2.59375 2.640625 -1.9375 Z M 0.828125 -1.9375 "/>
</g>
<g id="glyph-1-3">
<path d="M 2.078125 -1.890625 L 3.328125 -3.09375 L 2.640625 -3.09375 L 1.15625 -1.65625 L 1.15625 -4.84375 L 0.609375 -4.84375 L 0.609375 0 L 1.125 0 L 1.125 -0.96875 L 1.71875 -1.546875 L 2.875 0 L 3.484375 0 Z M 2.078125 -1.890625 "/>
</g>
<g id="glyph-1-4">
<path d="M 3.296875 -3.09375 L 2.734375 -3.09375 C 2.171875 -1.765625 1.78125 -0.859375 1.75 -0.4375 C 1.734375 -0.640625 1.609375 -0.984375 1.484375 -1.3125 C 1.375 -1.59375 1.265625 -1.875 1.140625 -2.140625 L 0.703125 -3.09375 L 0.109375 -3.09375 L 1.546875 0 C 1.46875 0.203125 1.328125 0.515625 1.28125 0.609375 C 1.140625 0.90625 1.03125 1 0.84375 1 C 0.828125 1 0.5625 1 0.265625 0.875 L 0.3125 1.359375 C 0.375 1.375 0.625 1.421875 0.84375 1.421875 C 1.125 1.421875 1.375 1.3125 1.671875 0.640625 Z M 3.296875 -3.09375 "/>
</g>
<g id="glyph-1-5">
<path d="M 2.96875 -2 C 2.96875 -2.71875 2.421875 -3.203125 1.734375 -3.203125 C 1.296875 -3.203125 0.96875 -3.109375 0.578125 -2.90625 L 0.609375 -2.390625 C 0.84375 -2.546875 1.1875 -2.75 1.734375 -2.75 C 2.046875 -2.75 2.359375 -2.515625 2.359375 -2 L 2.359375 -1.71875 C 1.328125 -1.6875 0.3125 -1.46875 0.3125 -0.828125 C 0.3125 -0.46875 0.546875 0.0625 1.15625 0.0625 C 1.46875 0.0625 2.015625 0 2.390625 -0.265625 L 2.390625 0 L 2.96875 0 Z M 2.359375 -0.984375 C 2.359375 -0.84375 2.359375 -0.671875 2.125 -0.515625 C 1.890625 -0.390625 1.625 -0.390625 1.546875 -0.390625 C 1.15625 -0.390625 0.875 -0.5625 0.875 -0.828125 C 0.875 -1.28125 2.046875 -1.3125 2.359375 -1.328125 Z M 2.359375 -0.984375 "/>
</g>
<g id="glyph-1-6">
<path d="M 2.546875 -2.984375 C 2.0625 -3.171875 1.71875 -3.203125 1.46875 -3.203125 C 1.296875 -3.203125 0.25 -3.203125 0.25 -2.265625 C 0.25 -1.9375 0.421875 -1.765625 0.515625 -1.671875 C 0.765625 -1.4375 1.046875 -1.375 1.421875 -1.3125 C 1.75 -1.25 2.125 -1.171875 2.125 -0.84375 C 2.125 -0.40625 1.546875 -0.40625 1.453125 -0.40625 C 1 -0.40625 0.578125 -0.5625 0.3125 -0.765625 L 0.203125 -0.234375 C 0.453125 -0.125 0.875 0.0625 1.453125 0.0625 C 1.765625 0.0625 2.0625 0.015625 2.328125 -0.171875 C 2.578125 -0.359375 2.671875 -0.671875 2.671875 -0.90625 C 2.671875 -1.03125 2.65625 -1.296875 2.359375 -1.5625 C 2.109375 -1.796875 1.859375 -1.84375 1.515625 -1.90625 C 1.109375 -1.984375 0.78125 -2.046875 0.78125 -2.359375 C 0.78125 -2.75 1.296875 -2.75 1.40625 -2.75 C 1.796875 -2.75 2.109375 -2.671875 2.453125 -2.484375 Z M 2.546875 -2.984375 "/>
</g>
<g id="glyph-1-7">
<path d="M 4.953125 -3.09375 L 4.40625 -3.09375 C 4.34375 -2.90625 3.953125 -1.71875 3.734375 -1 C 3.671875 -0.796875 3.609375 -0.578125 3.59375 -0.40625 L 3.578125 -0.40625 C 3.546875 -0.703125 3.296875 -1.453125 3.28125 -1.5 L 2.765625 -3.09375 L 2.234375 -3.09375 C 2.03125 -2.5 1.515625 -0.9375 1.453125 -0.421875 C 1.390625 -0.921875 0.875 -2.453125 0.765625 -2.796875 C 0.703125 -2.96875 0.703125 -2.96875 0.671875 -3.09375 L 0.109375 -3.09375 L 1.125 0 L 1.703125 0 C 1.71875 -0.03125 1.90625 -0.578125 2.140625 -1.359375 C 2.25 -1.6875 2.453125 -2.359375 2.5 -2.671875 C 2.515625 -2.53125 2.5625 -2.375 2.609375 -2.203125 C 2.65625 -2.03125 2.703125 -1.84375 2.75 -1.671875 L 3.296875 0 L 3.9375 0 Z M 4.953125 -3.09375 "/>
</g>
<g id="glyph-1-8">
<path d="M 1.171875 -1.484375 C 1.171875 -2.234375 1.8125 -2.640625 2.421875 -2.640625 L 2.421875 -3.15625 C 1.828125 -3.15625 1.40625 -2.875 1.125 -2.5 L 1.125 -3.140625 L 0.59375 -3.140625 L 0.59375 0 L 1.171875 0 Z M 1.171875 -1.484375 "/>
</g>
<g id="glyph-1-9">
<path d="M 1.34375 0 L 1.34375 -0.625 L 0.703125 -0.625 L 0.703125 0 L 0.90625 0 L 0.703125 0.890625 L 1.015625 0.890625 Z M 1.34375 0 "/>
</g>
<g id="glyph-1-10">
<path d="M 3.296875 -3.09375 L 2.75 -3.09375 C 1.796875 -0.765625 1.75 -0.578125 1.71875 -0.40625 C 1.65625 -0.6875 1.46875 -1.171875 1.25 -1.703125 L 0.6875 -3.09375 L 0.109375 -3.09375 L 1.375 0 L 2.03125 0 Z M 3.296875 -3.09375 "/>
</g>
<g id="glyph-1-11">
<path d="M 1.3125 -2.65625 L 2.34375 -2.65625 L 2.34375 -3.09375 L 1.3125 -3.09375 L 1.3125 -3.984375 L 0.78125 -3.984375 L 0.78125 -3.09375 L 0.140625 -3.09375 L 0.140625 -2.65625 L 0.75 -2.65625 L 0.75 -0.890625 C 0.75 -0.421875 0.875 0.0625 1.375 0.0625 C 1.875 0.0625 2.265625 -0.09375 2.46875 -0.1875 L 2.34375 -0.640625 C 2.125 -0.46875 1.875 -0.40625 1.671875 -0.40625 C 1.390625 -0.40625 1.3125 -0.703125 1.3125 -1.015625 Z M 1.3125 -2.65625 "/>
</g>
<g id="glyph-1-12">
<path d="M 3.234375 -2.0625 C 3.234375 -2.609375 3.078125 -3.15625 2.21875 -3.15625 C 1.625 -3.15625 1.296875 -2.8125 1.15625 -2.671875 L 1.15625 -4.84375 L 0.578125 -4.84375 L 0.578125 0 L 1.1875 0 L 1.1875 -1.6875 C 1.1875 -2.15625 1.375 -2.703125 1.921875 -2.703125 C 2.640625 -2.703125 2.640625 -2.21875 2.640625 -2.015625 L 2.640625 0 L 3.234375 0 Z M 3.234375 -2.0625 "/>
</g>
<g id="glyph-1-13">
<path d="M 1.21875 -4.78125 L 0.515625 -4.78125 L 0.515625 -4.078125 L 1.21875 -4.078125 Z M 1.171875 -3.09375 L 0.578125 -3.09375 L 0.578125 0 L 1.171875 0 Z M 1.171875 -3.09375 "/>
</g>
<g id="glyph-1-14">
<path d="M 3.5 -3.15625 C 3.359375 -3.15625 2.890625 -3.15625 2.359375 -2.953125 L 2.34375 -2.953125 C 2.09375 -3.109375 1.84375 -3.15625 1.640625 -3.15625 C 0.96875 -3.15625 0.453125 -2.625 0.453125 -2.03125 C 0.453125 -1.78125 0.53125 -1.53125 0.703125 -1.34375 C 0.59375 -1.21875 0.5 -1.03125 0.5 -0.765625 C 0.5 -0.484375 0.609375 -0.3125 0.671875 -0.234375 C 0.28125 0 0.203125 0.3125 0.203125 0.484375 C 0.203125 1.015625 0.9375 1.421875 1.84375 1.421875 C 2.765625 1.421875 3.484375 1.015625 3.484375 0.484375 C 3.484375 -0.5 2.265625 -0.5 1.96875 -0.5 L 1.3125 -0.5 C 1.203125 -0.5 0.90625 -0.5 0.90625 -0.859375 C 0.90625 -1 0.953125 -1.078125 0.96875 -1.09375 C 1.203125 -0.9375 1.453125 -0.890625 1.640625 -0.890625 C 2.328125 -0.890625 2.828125 -1.421875 2.828125 -2.015625 C 2.828125 -2.25 2.765625 -2.453125 2.640625 -2.640625 C 2.609375 -2.671875 2.609375 -2.6875 2.609375 -2.6875 C 2.609375 -2.71875 3.03125 -2.71875 3.0625 -2.71875 C 3.078125 -2.71875 3.34375 -2.71875 3.59375 -2.6875 Z M 1.640625 -1.3125 C 1.265625 -1.3125 0.984375 -1.546875 0.984375 -2.015625 C 0.984375 -2.5625 1.34375 -2.734375 1.640625 -2.734375 C 2.015625 -2.734375 2.296875 -2.5 2.296875 -2.03125 C 2.296875 -1.484375 1.9375 -1.3125 1.640625 -1.3125 Z M 1.96875 0.046875 C 2.125 0.046875 2.953125 0.046875 2.953125 0.484375 C 2.953125 0.78125 2.4375 1 1.84375 1 C 1.265625 1 0.734375 0.78125 0.734375 0.484375 C 0.734375 0.453125 0.734375 0.046875 1.296875 0.046875 Z M 1.96875 0.046875 "/>
</g>
<g id="glyph-1-15">
<path d="M 1.171875 -4.84375 L 0.578125 -4.84375 L 0.578125 0 L 1.171875 0 Z M 1.171875 -4.84375 "/>
</g>
<g id="glyph-1-16">
<path d="M 3.234375 -3.09375 L 2.640625 -3.09375 L 2.640625 -1.078125 C 2.640625 -0.515625 2.15625 -0.34375 1.75 -0.34375 C 1.234375 -0.34375 1.1875 -0.484375 1.1875 -0.796875 L 1.1875 -3.09375 L 0.578125 -3.09375 L 0.578125 -0.765625 C 0.578125 -0.140625 0.84375 0.0625 1.34375 0.0625 C 1.625 0.0625 2.234375 0.015625 2.65625 -0.328125 L 2.65625 0 L 3.234375 0 Z M 3.234375 -3.09375 "/>
</g>
<g id="glyph-1-17">
<path d="M 3.03125 -0.765625 C 2.6875 -0.53125 2.3125 -0.40625 1.875 -0.40625 C 1.234375 -0.40625 0.859375 -0.921875 0.859375 -1.546875 C 0.859375 -2.09375 1.140625 -2.71875 1.890625 -2.71875 C 2.375 -2.71875 2.59375 -2.625 2.953125 -2.390625 L 3.03125 -2.90625 C 2.625 -3.109375 2.4375 -3.203125 1.890625 -3.203125 C 0.84375 -3.203125 0.25 -2.359375 0.25 -1.546875 C 0.25 -0.703125 0.921875 0.0625 1.875 0.0625 C 2.359375 0.0625 2.78125 -0.078125 3.078125 -0.25 Z M 3.03125 -0.765625 "/>
</g>
<g id="glyph-1-18">
<path d="M 3.21875 -3.15625 L 2.640625 -3.15625 L 2.640625 -2.703125 C 2.390625 -2.96875 2.015625 -3.15625 1.609375 -3.15625 C 0.875 -3.15625 0.25 -2.46875 0.25 -1.546875 C 0.25 -0.671875 0.78125 0.0625 1.484375 0.0625 C 1.71875 0.0625 2.1875 0.015625 2.625 -0.34375 L 2.625 1.359375 L 3.21875 1.359375 Z M 2.640625 -0.859375 C 2.390625 -0.46875 2.0625 -0.390625 1.859375 -0.390625 C 1.296875 -0.390625 0.859375 -0.921875 0.859375 -1.546875 C 0.859375 -2.21875 1.375 -2.6875 1.921875 -2.6875 C 2.390625 -2.6875 2.640625 -2.234375 2.640625 -1.9375 Z M 2.640625 -0.859375 "/>
</g>
<g id="glyph-1-19">
<path d="M 5.296875 -2.0625 C 5.296875 -2.609375 5.140625 -3.15625 4.28125 -3.15625 C 3.6875 -3.15625 3.328125 -2.828125 3.15625 -2.59375 C 3.09375 -2.78125 2.921875 -3.15625 2.21875 -3.15625 C 1.828125 -3.15625 1.4375 -3 1.140625 -2.640625 L 1.140625 -3.140625 L 0.578125 -3.140625 L 0.578125 0 L 1.1875 0 L 1.1875 -1.6875 C 1.1875 -2.15625 1.375 -2.703125 1.921875 -2.703125 C 2.640625 -2.703125 2.640625 -2.21875 2.640625 -2.015625 L 2.640625 0 L 3.234375 0 L 3.234375 -1.6875 C 3.234375 -2.15625 3.4375 -2.703125 3.96875 -2.703125 C 4.6875 -2.703125 4.6875 -2.21875 4.6875 -2.015625 L 4.6875 0 L 5.296875 0 Z M 5.296875 -2.0625 "/>
</g>
<g id="glyph-1-20">
<path d="M 1.203125 -0.328125 C 1.5625 0 1.96875 0.0625 2.203125 0.0625 C 2.9375 0.0625 3.5625 -0.640625 3.5625 -1.546875 C 3.5625 -2.390625 3.109375 -3.15625 2.421875 -3.15625 C 2.109375 -3.15625 1.578125 -3.078125 1.171875 -2.765625 L 1.171875 -3.09375 L 0.59375 -3.09375 L 0.59375 1.359375 L 1.203125 1.359375 Z M 1.203125 -2.3125 C 1.359375 -2.515625 1.625 -2.6875 1.96875 -2.6875 C 2.515625 -2.6875 2.96875 -2.171875 2.96875 -1.546875 C 2.96875 -0.859375 2.4375 -0.390625 1.890625 -0.390625 C 1.796875 -0.390625 1.609375 -0.40625 1.4375 -0.546875 C 1.21875 -0.703125 1.203125 -0.8125 1.203125 -0.953125 Z M 1.203125 -2.3125 "/>
</g>
<g id="glyph-1-21">
<path d="M 1.171875 -4.84375 L 0.59375 -4.84375 L 0.59375 0 L 1.203125 0 L 1.203125 -0.328125 C 1.359375 -0.1875 1.6875 0.0625 2.1875 0.0625 C 2.953125 0.0625 3.5625 -0.640625 3.5625 -1.546875 C 3.5625 -2.390625 3.09375 -3.15625 2.390625 -3.15625 C 1.953125 -3.15625 1.53125 -3.03125 1.171875 -2.765625 Z M 1.203125 -2.1875 C 1.203125 -2.3125 1.203125 -2.390625 1.4375 -2.546875 C 1.546875 -2.609375 1.734375 -2.703125 1.96875 -2.703125 C 2.4375 -2.703125 2.96875 -2.390625 2.96875 -1.546875 C 2.96875 -0.703125 2.390625 -0.390625 1.890625 -0.390625 C 1.640625 -0.390625 1.390625 -0.515625 1.203125 -0.828125 Z M 1.203125 -2.1875 "/>
</g>
<g id="glyph-1-22">
<path d="M 3.21875 -4.84375 L 2.640625 -4.84375 L 2.640625 -2.796875 C 2.1875 -3.125 1.734375 -3.15625 1.546875 -3.15625 C 0.8125 -3.15625 0.25 -2.4375 0.25 -1.546875 C 0.25 -0.65625 0.796875 0.0625 1.515625 0.0625 C 1.953125 0.0625 2.359375 -0.125 2.625 -0.359375 L 2.625 0 L 3.21875 0 Z M 2.625 -0.859375 C 2.453125 -0.578125 2.1875 -0.390625 1.84375 -0.390625 C 1.359375 -0.390625 0.859375 -0.734375 0.859375 -1.546875 C 0.859375 -2.40625 1.453125 -2.703125 1.921875 -2.703125 C 2.203125 -2.703125 2.4375 -2.578125 2.625 -2.34375 Z M 2.625 -0.859375 "/>
</g>
<g id="glyph-2-0">
<path d="M -2.0625 -5.296875 C -2.609375 -5.296875 -3.15625 -5.140625 -3.15625 -4.28125 C -3.15625 -3.6875 -2.828125 -3.328125 -2.59375 -3.15625 C -2.78125 -3.09375 -3.15625 -2.921875 -3.15625 -2.21875 C -3.15625 -1.828125 -3 -1.4375 -2.640625 -1.140625 L -3.140625 -1.140625 L -3.140625 -0.578125 L 0 -0.578125 L 0 -1.1875 L -1.6875 -1.1875 C -2.15625 -1.1875 -2.703125 -1.375 -2.703125 -1.921875 C -2.703125 -2.640625 -2.21875 -2.640625 -2.015625 -2.640625 L 0 -2.640625 L 0 -3.234375 L -1.6875 -3.234375 C -2.15625 -3.234375 -2.703125 -3.4375 -2.703125 -3.96875 C -2.703125 -4.6875 -2.21875 -4.6875 -2.015625 -4.6875 L 0 -4.6875 L 0 -5.296875 Z M -2.0625 -5.296875 "/>
</g>
<g id="glyph-2-1">
<path d="M -2 -2.96875 C -2.71875 -2.96875 -3.203125 -2.421875 -3.203125 -1.734375 C -3.203125 -1.296875 -3.109375 -0.96875 -2.90625 -0.578125 L -2.390625 -0.609375 C -2.546875 -0.84375 -2.75 -1.1875 -2.75 -1.734375 C -2.75 -2.046875 -2.515625 -2.359375 -2 -2.359375 L -1.71875 -2.359375 C -1.6875 -1.328125 -1.46875 -0.3125 -0.828125 -0.3125 C -0.46875 -0.3125 0.0625 -0.546875 0.0625 -1.15625 C 0.0625 -1.46875 0 -2.015625 -0.265625 -2.390625 L 0 -2.390625 L 0 -2.96875 Z M -0.984375 -2.359375 C -0.84375 -2.359375 -0.671875 -2.359375 -0.515625 -2.125 C -0.390625 -1.890625 -0.390625 -1.625 -0.390625 -1.546875 C -0.390625 -1.15625 -0.5625 -0.875 -0.828125 -0.875 C -1.28125 -0.875 -1.3125 -2.046875 -1.328125 -2.359375 Z M -0.984375 -2.359375 "/>
</g>
<g id="glyph-2-2">
<path d="M -2.65625 -1.3125 L -2.65625 -2.34375 L -3.09375 -2.34375 L -3.09375 -1.3125 L -3.984375 -1.3125 L -3.984375 -0.78125 L -3.09375 -0.78125 L -3.09375 -0.140625 L -2.65625 -0.140625 L -2.65625 -0.75 L -0.890625 -0.75 C -0.421875 -0.75 0.0625 -0.875 0.0625 -1.375 C 0.0625 -1.875 -0.09375 -2.265625 -0.1875 -2.46875 L -0.640625 -2.34375 C -0.46875 -2.125 -0.40625 -1.875 -0.40625 -1.671875 C -0.40625 -1.390625 -0.703125 -1.3125 -1.015625 -1.3125 Z M -2.65625 -1.3125 "/>
</g>
<g id="glyph-2-3">
<path d="M -0.765625 -3.03125 C -0.53125 -2.6875 -0.40625 -2.3125 -0.40625 -1.875 C -0.40625 -1.234375 -0.921875 -0.859375 -1.546875 -0.859375 C -2.09375 -0.859375 -2.71875 -1.140625 -2.71875 -1.890625 C -2.71875 -2.375 -2.625 -2.59375 -2.390625 -2.953125 L -2.90625 -3.03125 C -3.109375 -2.625 -3.203125 -2.4375 -3.203125 -1.890625 C -3.203125 -0.84375 -2.359375 -0.25 -1.546875 -0.25 C -0.703125 -0.25 0.0625 -0.921875 0.0625 -1.875 C 0.0625 -2.359375 -0.078125 -2.78125 -0.25 -3.078125 Z M -0.765625 -3.03125 "/>
</g>
<g id="glyph-2-4">
<path d="M -2.0625 -3.234375 C -2.609375 -3.234375 -3.15625 -3.078125 -3.15625 -2.21875 C -3.15625 -1.625 -2.8125 -1.296875 -2.671875 -1.15625 L -4.84375 -1.15625 L -4.84375 -0.578125 L 0 -0.578125 L 0 -1.1875 L -1.6875 -1.1875 C -2.15625 -1.1875 -2.703125 -1.375 -2.703125 -1.921875 C -2.703125 -2.640625 -2.21875 -2.640625 -2.015625 -2.640625 L 0 -2.640625 L 0 -3.234375 Z M -2.0625 -3.234375 "/>
</g>
<g id="glyph-2-5">
<path d="M -2.984375 -2.546875 C -3.171875 -2.0625 -3.203125 -1.71875 -3.203125 -1.46875 C -3.203125 -1.296875 -3.203125 -0.25 -2.265625 -0.25 C -1.9375 -0.25 -1.765625 -0.421875 -1.671875 -0.515625 C -1.4375 -0.765625 -1.375 -1.046875 -1.3125 -1.421875 C -1.25 -1.75 -1.171875 -2.125 -0.84375 -2.125 C -0.40625 -2.125 -0.40625 -1.546875 -0.40625 -1.453125 C -0.40625 -1 -0.5625 -0.578125 -0.765625 -0.3125 L -0.234375 -0.203125 C -0.125 -0.453125 0.0625 -0.875 0.0625 -1.453125 C 0.0625 -1.765625 0.015625 -2.0625 -0.171875 -2.328125 C -0.359375 -2.578125 -0.671875 -2.671875 -0.90625 -2.671875 C -1.03125 -2.671875 -1.296875 -2.65625 -1.5625 -2.359375 C -1.796875 -2.109375 -1.84375 -1.859375 -1.90625 -1.515625 C -1.984375 -1.109375 -2.046875 -0.78125 -2.359375 -0.78125 C -2.75 -0.78125 -2.75 -1.296875 -2.75 -1.40625 C -2.75 -1.796875 -2.671875 -2.109375 -2.484375 -2.453125 Z M -2.984375 -2.546875 "/>
</g>
<g id="glyph-2-6">
<path d="M -1.53125 -3.484375 C -2.453125 -3.484375 -3.203125 -2.75 -3.203125 -1.84375 C -3.203125 -0.9375 -2.4375 -0.203125 -1.53125 -0.203125 C -0.640625 -0.203125 0.0625 -0.953125 0.0625 -1.84375 C 0.0625 -2.75 -0.640625 -3.484375 -1.53125 -3.484375 Z M -0.40625 -1.84375 C -0.40625 -1.296875 -0.8125 -0.8125 -1.609375 -0.8125 C -2.390625 -0.8125 -2.734375 -1.328125 -2.734375 -1.84375 C -2.734375 -2.375 -2.375 -2.875 -1.609375 -2.875 C -0.8125 -2.875 -0.40625 -2.390625 -0.40625 -1.84375 Z M -0.40625 -1.84375 "/>
</g>
<g id="glyph-2-7">
<path d="M -1.484375 -1.171875 C -2.234375 -1.171875 -2.640625 -1.8125 -2.640625 -2.421875 L -3.15625 -2.421875 C -3.15625 -1.828125 -2.875 -1.40625 -2.5 -1.125 L -3.140625 -1.125 L -3.140625 -0.59375 L 0 -0.59375 L 0 -1.171875 Z M -1.484375 -1.171875 "/>
</g>
<g id="glyph-2-8">
<path d="M -0.765625 -3 C -0.484375 -2.609375 -0.390625 -2.171875 -0.390625 -1.875 C -0.390625 -1.265625 -0.890625 -0.796875 -1.53125 -0.78125 L -1.53125 -3.0625 C -1.84375 -3.0625 -2.3125 -3.03125 -2.703125 -2.765625 C -3.0625 -2.515625 -3.203125 -2.09375 -3.203125 -1.75 C -3.203125 -0.90625 -2.453125 -0.25 -1.5625 -0.25 C -0.671875 -0.25 0.0625 -0.9375 0.0625 -1.859375 C 0.0625 -2.265625 -0.046875 -2.6875 -0.265625 -3.03125 Z M -1.9375 -0.828125 C -2.5 -0.984375 -2.734375 -1.40625 -2.734375 -1.75 C -2.734375 -2.0625 -2.59375 -2.515625 -1.9375 -2.640625 Z M -1.9375 -0.828125 "/>
</g>
<g id="glyph-3-0">
<path d="M 5.359375 -2.34375 C 5.453125 -2.34375 5.609375 -2.34375 5.609375 -2.515625 C 5.609375 -2.6875 5.453125 -2.6875 5.359375 -2.6875 L 0.75 -2.6875 C 0.65625 -2.6875 0.484375 -2.6875 0.484375 -2.515625 C 0.484375 -2.34375 0.640625 -2.34375 0.75 -2.34375 Z M 5.359375 -0.8125 C 5.453125 -0.8125 5.609375 -0.8125 5.609375 -0.96875 C 5.609375 -1.15625 5.453125 -1.15625 5.359375 -1.15625 L 0.75 -1.15625 C 0.640625 -1.15625 0.484375 -1.15625 0.484375 -0.96875 C 0.484375 -0.8125 0.65625 -0.8125 0.75 -0.8125 Z M 5.359375 -0.8125 "/>
</g>
<g id="glyph-3-1">
<path d="M 3.59375 -2.21875 C 3.59375 -2.984375 3.5 -3.546875 3.1875 -4.03125 C 2.96875 -4.34375 2.53125 -4.625 1.984375 -4.625 C 0.359375 -4.625 0.359375 -2.71875 0.359375 -2.21875 C 0.359375 -1.71875 0.359375 0.140625 1.984375 0.140625 C 3.59375 0.140625 3.59375 -1.71875 3.59375 -2.21875 Z M 1.984375 -0.0625 C 1.65625 -0.0625 1.234375 -0.25 1.09375 -0.8125 C 1 -1.21875 1 -1.796875 1 -2.3125 C 1 -2.828125 1 -3.359375 1.09375 -3.734375 C 1.25 -4.28125 1.6875 -4.4375 1.984375 -4.4375 C 2.359375 -4.4375 2.71875 -4.203125 2.84375 -3.796875 C 2.953125 -3.421875 2.96875 -2.921875 2.96875 -2.3125 C 2.96875 -1.796875 2.96875 -1.28125 2.875 -0.84375 C 2.734375 -0.203125 2.265625 -0.0625 1.984375 -0.0625 Z M 1.984375 -0.0625 "/>
</g>
</g>
<clipPath id="clip-0">
<path clip-rule="nonzero" d="M 404 93 L 429.492188 93 L 429.492188 118 L 404 118 Z M 404 93 "/>
</clipPath>
<clipPath id="clip-1">
<path clip-rule="nonzero" d="M 216 27 L 429.492188 27 L 429.492188 127 L 216 127 Z M 216 27 "/>
</clipPath>
</defs>
<g fill="rgb(19.999695%, 19.999695%, 19.999695%)" fill-opacity="1">
<use xlink:href="#glyph-0-0" x="87.113" y="19.51"/>
<use xlink:href="#glyph-0-1" x="92.866739" y="19.51"/>
<use xlink:href="#glyph-0-2" x="97.349939" y="19.51"/>
<use xlink:href="#glyph-0-3" x="102.057299" y="19.51"/>
<use xlink:href="#glyph-0-4" x="106.440972" y="19.51"/>
</g>
<g fill="rgb(19.999695%, 19.999695%, 19.999695%)" fill-opacity="1">
<use xlink:href="#glyph-0-5" x="113.35586" y="19.51"/>
<use xlink:href="#glyph-0-2" x="121.127038" y="19.51"/>
<use xlink:href="#glyph-0-4" x="125.834398" y="19.51"/>
<use xlink:href="#glyph-0-3" x="129.458617" y="19.51"/>
<use xlink:href="#glyph-0-6" x="133.84229" y="19.51"/>
</g>
<g fill="rgb(41.96167%, 39.216614%, 44.706726%)" fill-opacity="1">
<use xlink:href="#glyph-1-0" x="38.31" y="30.329"/>
<use xlink:href="#glyph-1-1" x="42.01518" y="30.329"/>
<use xlink:href="#glyph-1-2" x="45.841007" y="30.329"/>
</g>
<g fill="rgb(41.96167%, 39.216614%, 44.706726%)" fill-opacity="1">
<use xlink:href="#glyph-1-3" x="51.60276" y="30.329"/>
</g>
<g fill="rgb(41.96167%, 39.216614%, 44.706726%)" fill-opacity="1">
<use xlink:href="#glyph-1-2" x="55.02062" y="30.329"/>
<use xlink:href="#glyph-1-4" x="58.313648" y="30.329"/>
</g>
<g fill="rgb(41.96167%, 39.216614%, 44.706726%)" fill-opacity="1">
<use xlink:href="#glyph-1-5" x="64.196746" y="30.329"/>
<use xlink:href="#glyph-1-1" x="67.756173" y="30.329"/>
<use xlink:href="#glyph-1-6" x="71.582" y="30.329"/>
<use xlink:href="#glyph-1-7" x="74.422429" y="30.329"/>
</g>
<g fill="rgb(41.96167%, 39.216614%, 44.706726%)" fill-opacity="1">
<use xlink:href="#glyph-1-2" x="79.274101" y="30.329"/>
<use xlink:href="#glyph-1-8" x="82.56713" y="30.329"/>
<use xlink:href="#glyph-1-6" x="85.097922" y="30.329"/>
<use xlink:href="#glyph-1-9" x="87.93835" y="30.329"/>
</g>
<g fill="rgb(41.96167%, 39.216614%, 44.706726%)" fill-opacity="1">
<use xlink:href="#glyph-1-2" x="92.472018" y="30.329"/>
<use xlink:href="#glyph-1-10" x="95.765046" y="30.329"/>
<use xlink:href="#glyph-1-2" x="99.179419" y="30.329"/>
<use xlink:href="#glyph-1-8" x="102.472447" y="30.329"/>
<use xlink:href="#glyph-1-4" x="105.003239" y="30.329"/>
<use xlink:href="#glyph-1-11" x="108.417611" y="30.329"/>
<use xlink:href="#glyph-1-12" x="111.093458" y="30.329"/>
<use xlink:href="#glyph-1-13" x="114.919285" y="30.329"/>
<use xlink:href="#glyph-1-1" x="116.687143" y="30.329"/>
<use xlink:href="#glyph-1-14" x="120.51297" y="30.329"/>
</g>
<g fill="rgb(41.96167%, 39.216614%, 44.706726%)" fill-opacity="1">
<use xlink:href="#glyph-1-2" x="126.686875" y="30.329"/>
<use xlink:href="#glyph-1-15" x="129.979904" y="30.329"/>
<use xlink:href="#glyph-1-6" x="131.747762" y="30.329"/>
<use xlink:href="#glyph-1-2" x="134.588191" y="30.329"/>
</g>
<g fill="rgb(41.96167%, 39.216614%, 44.706726%)" fill-opacity="1">
<use xlink:href="#glyph-1-8" x="140.349944" y="30.329"/>
<use xlink:href="#glyph-1-2" x="142.880736" y="30.329"/>
<use xlink:href="#glyph-1-11" x="146.173765" y="30.329"/>
<use xlink:href="#glyph-1-16" x="148.849612" y="30.329"/>
<use xlink:href="#glyph-1-8" x="152.675438" y="30.329"/>
<use xlink:href="#glyph-1-1" x="155.20623" y="30.329"/>
<use xlink:href="#glyph-1-6" x="159.032057" y="30.329"/>
</g>
<g fill="rgb(41.96167%, 39.216614%, 44.706726%)" fill-opacity="1">
<use xlink:href="#glyph-1-1" x="164.341211" y="30.329"/>
<use xlink:href="#glyph-1-0" x="168.167038" y="30.329"/>
<use xlink:href="#glyph-1-11" x="171.872218" y="30.329"/>
<use xlink:href="#glyph-1-12" x="174.548065" y="30.329"/>
<use xlink:href="#glyph-1-13" x="178.373891" y="30.329"/>
<use xlink:href="#glyph-1-1" x="180.14175" y="30.329"/>
<use xlink:href="#glyph-1-14" x="183.967576" y="30.329"/>
</g>
<path fill="none" stroke-width="0.79701" stroke-linecap="butt" stroke-linejoin="miter" stroke="rgb(19.999695%, 19.999695%, 19.999695%)" stroke-opacity="0.65" stroke-miterlimit="10" d="M 8.50225 0.0005 L 189.724906 0.0005 " transform="matrix(1, 0, 0, -1, 13.779, 105.688)"/>
<path fill-rule="nonzero" fill="rgb(19.999695%, 19.999695%, 19.999695%)" fill-opacity="0.65" stroke-width="0.79701" stroke-linecap="butt" stroke-linejoin="miter" stroke="rgb(19.999695%, 19.999695%, 19.999695%)" stroke-opacity="0.65" stroke-miterlimit="10" d="M 3.846344 0.0005 L 1.28775 0.973156 L 2.147125 0.0005 L 1.28775 -0.972156 Z M 3.846344 0.0005 " transform="matrix(1, 0, 0, -1, 201.556, 105.688)"/>
<g fill="rgb(41.96167%, 39.216614%, 44.706726%)" fill-opacity="0.65">
<use xlink:href="#glyph-1-12" x="100.65" y="116.242"/>
<use xlink:href="#glyph-1-0" x="104.475827" y="116.242"/>
</g>
<g fill="rgb(41.96167%, 39.216614%, 44.706726%)" fill-opacity="0.65">
<use xlink:href="#glyph-1-7" x="107.971793" y="116.242"/>
</g>
<g fill="rgb(41.96167%, 39.216614%, 44.706726%)" fill-opacity="0.65">
<use xlink:href="#glyph-1-17" x="115.508378" y="116.242"/>
<use xlink:href="#glyph-1-15" x="118.801407" y="116.242"/>
<use xlink:href="#glyph-1-0" x="120.569265" y="116.242"/>
<use xlink:href="#glyph-1-6" x="124.274445" y="116.242"/>
<use xlink:href="#glyph-1-2" x="127.114874" y="116.242"/>
</g>
<g fill="rgb(41.96167%, 39.216614%, 44.706726%)" fill-opacity="0.65">
<use xlink:href="#glyph-1-11" x="132.876627" y="116.242"/>
<use xlink:href="#glyph-1-12" x="135.552474" y="116.242"/>
<use xlink:href="#glyph-1-2" x="139.378301" y="116.242"/>
</g>
<g fill="rgb(41.96167%, 39.216614%, 44.706726%)" fill-opacity="0.65">
<use xlink:href="#glyph-1-18" x="145.140054" y="116.242"/>
<use xlink:href="#glyph-1-16" x="148.965881" y="116.242"/>
<use xlink:href="#glyph-1-2" x="152.791708" y="116.242"/>
<use xlink:href="#glyph-1-8" x="156.084736" y="116.242"/>
<use xlink:href="#glyph-1-4" x="158.615528" y="116.242"/>
</g>
<g fill="rgb(41.96167%, 39.216614%, 44.706726%)" fill-opacity="0.65">
<use xlink:href="#glyph-1-13" x="164.498626" y="116.242"/>
<use xlink:href="#glyph-1-6" x="166.266484" y="116.242"/>
</g>
<g fill="rgb(41.96167%, 39.216614%, 44.706726%)" fill-opacity="0.65">
<use xlink:href="#glyph-1-11" x="171.575638" y="116.242"/>
<use xlink:href="#glyph-1-0" x="174.251485" y="116.242"/>
</g>
<g fill="rgb(41.96167%, 39.216614%, 44.706726%)" fill-opacity="0.65">
<use xlink:href="#glyph-1-11" x="180.432364" y="116.242"/>
<use xlink:href="#glyph-1-12" x="183.108211" y="116.242"/>
<use xlink:href="#glyph-1-2" x="186.934038" y="116.242"/>
</g>
<g fill="rgb(41.96167%, 39.216614%, 44.706726%)" fill-opacity="0.65">
<use xlink:href="#glyph-1-3" x="192.695791" y="116.242"/>
</g>
<g fill="rgb(41.96167%, 39.216614%, 44.706726%)" fill-opacity="0.65">
<use xlink:href="#glyph-1-2" x="196.106677" y="116.242"/>
<use xlink:href="#glyph-1-4" x="199.399705" y="116.242"/>
</g>
<path fill="none" stroke-width="0.79701" stroke-linecap="butt" stroke-linejoin="miter" stroke="rgb(19.999695%, 19.999695%, 19.999695%)" stroke-opacity="0.65" stroke-miterlimit="10" d="M 99.213188 -4.253406 L 99.213188 63.582531 " transform="matrix(1, 0, 0, -1, 13.779, 105.688)"/>
<path fill-rule="nonzero" fill="rgb(19.999695%, 19.999695%, 19.999695%)" fill-opacity="0.65" stroke-width="0.79701" stroke-linecap="butt" stroke-linejoin="miter" stroke="rgb(19.999695%, 19.999695%, 19.999695%)" stroke-opacity="0.65" stroke-miterlimit="10" d="M 3.847179 0.0006325 L 1.288585 0.973289 L 2.14796 0.0006325 L 1.288585 -0.972024 Z M 3.847179 0.0006325 " transform="matrix(0, -1, -1, 0, 112.99282, 44.05421)"/>
<g fill="rgb(41.96167%, 39.216614%, 44.706726%)" fill-opacity="1">
<use xlink:href="#glyph-2-0" x="103.236" y="93.089"/>
<use xlink:href="#glyph-2-1" x="103.236" y="87.204508"/>
<use xlink:href="#glyph-2-2" x="103.236" y="83.64508"/>
<use xlink:href="#glyph-2-3" x="103.236" y="80.969233"/>
<use xlink:href="#glyph-2-4" x="103.236" y="77.676205"/>
</g>
<g fill="rgb(41.96167%, 39.216614%, 44.706726%)" fill-opacity="1">
<use xlink:href="#glyph-2-5" x="103.236" y="71.381653"/>
<use xlink:href="#glyph-2-3" x="103.236" y="68.541224"/>
<use xlink:href="#glyph-2-6" x="103.236" y="65.248196"/>
</g>
<g fill="rgb(41.96167%, 39.216614%, 44.706726%)" fill-opacity="1">
<use xlink:href="#glyph-2-7" x="103.236" y="61.745256"/>
<use xlink:href="#glyph-2-8" x="103.236" y="59.214464"/>
</g>
<path fill="none" stroke-width="1.49442" stroke-linecap="butt" stroke-linejoin="miter" stroke="rgb(59.606934%, 14.509583%, 59.606934%)" stroke-opacity="1" stroke-miterlimit="10" d="M 11.338188 0.0005 L 98.646781 0.0005 " transform="matrix(1, 0, 0, -1, 13.779, 105.688)"/>
<path fill="none" stroke-width="1.49442" stroke-linecap="butt" stroke-linejoin="miter" stroke="rgb(59.606934%, 14.509583%, 59.606934%)" stroke-opacity="1" stroke-miterlimit="10" d="M 99.779594 0.0005 L 187.088188 0.0005 " transform="matrix(1, 0, 0, -1, 13.779, 105.688)"/>
<path fill="none" stroke-width="1.49442" stroke-linecap="butt" stroke-linejoin="miter" stroke="rgb(59.606934%, 14.509583%, 59.606934%)" stroke-opacity="1" stroke-miterlimit="10" d="M 99.213188 0.0005 L 99.213188 56.691906 " transform="matrix(1, 0, 0, -1, 13.779, 105.688)"/>
<path fill-rule="nonzero" fill="rgb(59.606934%, 14.509583%, 59.606934%)" fill-opacity="1" d="M 115.8125 48.996094 C 115.8125 47.4375 114.550781 46.175781 112.992188 46.175781 C 111.4375 46.175781 110.175781 47.4375 110.175781 48.996094 C 110.175781 50.550781 111.4375 51.8125 112.992188 51.8125 C 114.550781 51.8125 115.8125 50.550781 115.8125 48.996094 Z M 115.8125 48.996094 "/>
<g fill="rgb(59.606934%, 14.509583%, 59.606934%)" fill-opacity="1">
<use xlink:href="#glyph-1-11" x="122.748" y="45.636"/>
<use xlink:href="#glyph-1-12" x="125.423847" y="45.636"/>
<use xlink:href="#glyph-1-2" x="129.249674" y="45.636"/>
</g>
<g fill="rgb(59.606934%, 14.509583%, 59.606934%)" fill-opacity="1">
<use xlink:href="#glyph-1-0" x="135.011427" y="45.636"/>
<use xlink:href="#glyph-1-1" x="138.716607" y="45.636"/>
<use xlink:href="#glyph-1-2" x="142.542434" y="45.636"/>
</g>
<g fill="rgb(59.606934%, 14.509583%, 59.606934%)" fill-opacity="1">
<use xlink:href="#glyph-1-3" x="148.304187" y="45.636"/>
</g>
<g fill="rgb(59.606934%, 14.509583%, 59.606934%)" fill-opacity="1">
<use xlink:href="#glyph-1-2" x="151.722047" y="45.636"/>
<use xlink:href="#glyph-1-4" x="155.015075" y="45.636"/>
</g>
<g fill="rgb(59.606934%, 14.509583%, 59.606934%)" fill-opacity="1">
<use xlink:href="#glyph-1-11" x="160.898173" y="45.636"/>
<use xlink:href="#glyph-1-12" x="163.57402" y="45.636"/>
<use xlink:href="#glyph-1-5" x="167.399847" y="45.636"/>
<use xlink:href="#glyph-1-11" x="170.959274" y="45.636"/>
</g>
<g fill="rgb(59.606934%, 14.509583%, 59.606934%)" fill-opacity="1">
<use xlink:href="#glyph-1-19" x="176.103846" y="45.636"/>
<use xlink:href="#glyph-1-5" x="181.988339" y="45.636"/>
<use xlink:href="#glyph-1-11" x="185.547766" y="45.636"/>
<use xlink:href="#glyph-1-17" x="188.223613" y="45.636"/>
<use xlink:href="#glyph-1-12" x="191.516642" y="45.636"/>
<use xlink:href="#glyph-1-2" x="195.342468" y="45.636"/>
<use xlink:href="#glyph-1-6" x="198.635497" y="45.636"/>
</g>
<path fill-rule="nonzero" fill="rgb(8.233643%, 9.020996%, 23.922729%)" fill-opacity="1" d="M 73.429688 105.6875 C 73.429688 104.054688 72.105469 102.730469 70.472656 102.730469 C 68.839844 102.730469 67.515625 104.054688 67.515625 105.6875 C 67.515625 107.320312 68.839844 108.648438 70.472656 108.648438 C 72.105469 108.648438 73.429688 107.320312 73.429688 105.6875 Z M 73.429688 105.6875 "/>
<g fill="rgb(8.233643%, 9.020996%, 23.922729%)" fill-opacity="1">
<use xlink:href="#glyph-1-0" x="55.761" y="95.71"/>
<use xlink:href="#glyph-1-16" x="59.46618" y="95.71"/>
<use xlink:href="#glyph-1-8" x="63.292007" y="95.71"/>
</g>
<g fill="rgb(8.233643%, 9.020996%, 23.922729%)" fill-opacity="1">
<use xlink:href="#glyph-1-18" x="68.291524" y="95.71"/>
<use xlink:href="#glyph-1-16" x="72.117351" y="95.71"/>
<use xlink:href="#glyph-1-2" x="75.943177" y="95.71"/>
<use xlink:href="#glyph-1-8" x="79.236206" y="95.71"/>
<use xlink:href="#glyph-1-4" x="81.766998" y="95.71"/>
</g>
<path fill="none" stroke-width="1.39478" stroke-linecap="butt" stroke-linejoin="miter" stroke="rgb(89.411926%, 56.861877%, 78.823853%)" stroke-opacity="0.9" stroke-dasharray="2.98883 2.98883" stroke-miterlimit="10" d="M 28.346 0.0005 L 85.041313 0.0005 " transform="matrix(1, 0, 0, -1, 13.779, 105.688)"/>
<g fill="rgb(69.018555%, 0%, 12.548828%)" fill-opacity="1">
<use xlink:href="#glyph-1-6" x="48.154" y="127.541"/>
<use xlink:href="#glyph-1-15" x="50.994429" y="127.541"/>
<use xlink:href="#glyph-1-0" x="52.762287" y="127.541"/>
<use xlink:href="#glyph-1-20" x="56.467467" y="127.541"/>
</g>
<g fill="rgb(69.018555%, 0%, 12.548828%)" fill-opacity="1">
<use xlink:href="#glyph-1-2" x="60.495534" y="127.541"/>
</g>
<g fill="rgb(69.018555%, 0%, 12.548828%)" fill-opacity="1">
<use xlink:href="#glyph-3-0" x="66.262" y="127.541"/>
</g>
<g fill="rgb(69.018555%, 0%, 12.548828%)" fill-opacity="1">
<use xlink:href="#glyph-3-1" x="74.644508" y="127.541"/>
</g>
<g fill="rgb(69.018555%, 0%, 12.548828%)" fill-opacity="1">
<use xlink:href="#glyph-1-1" x="13.283" y="135.511"/>
<use xlink:href="#glyph-1-0" x="17.108827" y="135.511"/>
<use xlink:href="#glyph-1-11" x="20.814007" y="135.511"/>
<use xlink:href="#glyph-1-12" x="23.489854" y="135.511"/>
<use xlink:href="#glyph-1-13" x="27.31568" y="135.511"/>
<use xlink:href="#glyph-1-1" x="29.083539" y="135.511"/>
<use xlink:href="#glyph-1-14" x="32.909365" y="135.511"/>
</g>
<g fill="rgb(69.018555%, 0%, 12.548828%)" fill-opacity="1">
<use xlink:href="#glyph-1-6" x="39.08327" y="135.511"/>
<use xlink:href="#glyph-1-5" x="41.923699" y="135.511"/>
</g>
<g fill="rgb(69.018555%, 0%, 12.548828%)" fill-opacity="1">
<use xlink:href="#glyph-1-4" x="45.280887" y="135.511"/>
<use xlink:href="#glyph-1-6" x="48.695259" y="135.511"/>
</g>
<g fill="rgb(69.018555%, 0%, 12.548828%)" fill-opacity="1">
<use xlink:href="#glyph-1-7" x="54.004413" y="135.511"/>
<use xlink:href="#glyph-1-12" x="59.0653" y="135.511"/>
<use xlink:href="#glyph-1-13" x="62.891126" y="135.511"/>
<use xlink:href="#glyph-1-17" x="64.658985" y="135.511"/>
<use xlink:href="#glyph-1-12" x="67.952013" y="135.511"/>
</g>
<g fill="rgb(69.018555%, 0%, 12.548828%)" fill-opacity="1">
<use xlink:href="#glyph-1-7" x="74.246565" y="135.511"/>
</g>
<g fill="rgb(69.018555%, 0%, 12.548828%)" fill-opacity="1">
<use xlink:href="#glyph-1-5" x="79.105211" y="135.511"/>
</g>
<g fill="rgb(69.018555%, 0%, 12.548828%)" fill-opacity="1">
<use xlink:href="#glyph-1-4" x="82.455425" y="135.511"/>
</g>
<g fill="rgb(69.018555%, 0%, 12.548828%)" fill-opacity="1">
<use xlink:href="#glyph-1-11" x="88.338522" y="135.511"/>
<use xlink:href="#glyph-1-0" x="91.01437" y="135.511"/>
</g>
<g fill="rgb(69.018555%, 0%, 12.548828%)" fill-opacity="1">
<use xlink:href="#glyph-1-19" x="97.188275" y="135.511"/>
<use xlink:href="#glyph-1-0" x="103.072767" y="135.511"/>
<use xlink:href="#glyph-1-10" x="106.777947" y="135.511"/>
<use xlink:href="#glyph-1-2" x="110.19232" y="135.511"/>
</g>
<g fill="rgb(19.999695%, 19.999695%, 19.999695%)" fill-opacity="1">
<use xlink:href="#glyph-0-7" x="302.663" y="19.51"/>
<use xlink:href="#glyph-0-8" x="308.142367" y="19.51"/>
<use xlink:href="#glyph-0-9" x="313.073887" y="19.51"/>
<use xlink:href="#glyph-0-4" x="316.087494" y="19.51"/>
</g>
<g fill="rgb(19.999695%, 19.999695%, 19.999695%)" fill-opacity="1">
<use xlink:href="#glyph-0-5" x="323.002382" y="19.51"/>
<use xlink:href="#glyph-0-2" x="330.773561" y="19.51"/>
<use xlink:href="#glyph-0-4" x="335.480921" y="19.51"/>
<use xlink:href="#glyph-0-3" x="339.10514" y="19.51"/>
<use xlink:href="#glyph-0-6" x="343.488812" y="19.51"/>
</g>
<g fill="rgb(41.96167%, 39.216614%, 44.706726%)" fill-opacity="1">
<use xlink:href="#glyph-1-2" x="243.982" y="30.329"/>
<use xlink:href="#glyph-1-10" x="247.275028" y="30.329"/>
<use xlink:href="#glyph-1-2" x="250.689401" y="30.329"/>
<use xlink:href="#glyph-1-8" x="253.982429" y="30.329"/>
<use xlink:href="#glyph-1-4" x="256.513221" y="30.329"/>
</g>
<g fill="rgb(41.96167%, 39.216614%, 44.706726%)" fill-opacity="1">
<use xlink:href="#glyph-1-3" x="262.396319" y="30.329"/>
</g>
<g fill="rgb(41.96167%, 39.216614%, 44.706726%)" fill-opacity="1">
<use xlink:href="#glyph-1-2" x="265.814178" y="30.329"/>
<use xlink:href="#glyph-1-4" x="269.107207" y="30.329"/>
</g>
<g fill="rgb(41.96167%, 39.216614%, 44.706726%)" fill-opacity="1">
<use xlink:href="#glyph-1-5" x="274.990304" y="30.329"/>
<use xlink:href="#glyph-1-1" x="278.549732" y="30.329"/>
<use xlink:href="#glyph-1-6" x="282.375559" y="30.329"/>
<use xlink:href="#glyph-1-7" x="285.215987" y="30.329"/>
</g>
<g fill="rgb(41.96167%, 39.216614%, 44.706726%)" fill-opacity="1">
<use xlink:href="#glyph-1-2" x="290.06766" y="30.329"/>
<use xlink:href="#glyph-1-8" x="293.360688" y="30.329"/>
<use xlink:href="#glyph-1-6" x="295.89148" y="30.329"/>
</g>
<g fill="rgb(41.96167%, 39.216614%, 44.706726%)" fill-opacity="1">
<use xlink:href="#glyph-1-5" x="301.200634" y="30.329"/>
</g>
<g fill="rgb(41.96167%, 39.216614%, 44.706726%)" fill-opacity="1">
<use xlink:href="#glyph-1-15" x="307.235761" y="30.329"/>
<use xlink:href="#glyph-1-13" x="309.003619" y="30.329"/>
<use xlink:href="#glyph-1-11" x="310.771477" y="30.329"/>
<use xlink:href="#glyph-1-11" x="313.447324" y="30.329"/>
<use xlink:href="#glyph-1-15" x="316.123171" y="30.329"/>
<use xlink:href="#glyph-1-2" x="317.89103" y="30.329"/>
<use xlink:href="#glyph-1-9" x="321.184058" y="30.329"/>
</g>
<g fill="rgb(41.96167%, 39.216614%, 44.706726%)" fill-opacity="1">
<use xlink:href="#glyph-1-11" x="325.710752" y="30.329"/>
<use xlink:href="#glyph-1-12" x="328.386599" y="30.329"/>
<use xlink:href="#glyph-1-2" x="332.212425" y="30.329"/>
</g>
<g fill="rgb(41.96167%, 39.216614%, 44.706726%)" fill-opacity="1">
<use xlink:href="#glyph-1-21" x="337.974179" y="30.329"/>
</g>
<g fill="rgb(41.96167%, 39.216614%, 44.706726%)" fill-opacity="1">
<use xlink:href="#glyph-1-2" x="342.00922" y="30.329"/>
<use xlink:href="#glyph-1-6" x="345.302248" y="30.329"/>
<use xlink:href="#glyph-1-11" x="348.142677" y="30.329"/>
</g>
<g fill="rgb(41.96167%, 39.216614%, 44.706726%)" fill-opacity="1">
<use xlink:href="#glyph-1-3" x="353.287249" y="30.329"/>
</g>
<g fill="rgb(41.96167%, 39.216614%, 44.706726%)" fill-opacity="1">
<use xlink:href="#glyph-1-2" x="356.698135" y="30.329"/>
<use xlink:href="#glyph-1-4" x="359.991163" y="30.329"/>
</g>
<g fill="rgb(41.96167%, 39.216614%, 44.706726%)" fill-opacity="1">
<use xlink:href="#glyph-1-5" x="365.874261" y="30.329"/>
</g>
<g fill="rgb(41.96167%, 39.216614%, 44.706726%)" fill-opacity="1">
<use xlink:href="#glyph-1-1" x="369.440662" y="30.329"/>
<use xlink:href="#glyph-1-6" x="373.266489" y="30.329"/>
<use xlink:href="#glyph-1-7" x="376.106917" y="30.329"/>
</g>
<g fill="rgb(41.96167%, 39.216614%, 44.706726%)" fill-opacity="1">
<use xlink:href="#glyph-1-2" x="380.95859" y="30.329"/>
<use xlink:href="#glyph-1-8" x="384.251618" y="30.329"/>
<use xlink:href="#glyph-1-6" x="386.78241" y="30.329"/>
</g>
<g fill="rgb(41.96167%, 39.216614%, 44.706726%)" fill-opacity="1">
<use xlink:href="#glyph-1-19" x="392.091564" y="30.329"/>
<use xlink:href="#glyph-1-0" x="397.976057" y="30.329"/>
<use xlink:href="#glyph-1-6" x="401.681237" y="30.329"/>
<use xlink:href="#glyph-1-11" x="404.521666" y="30.329"/>
</g>
<path fill="none" stroke-width="0.79701" stroke-linecap="butt" stroke-linejoin="miter" stroke="rgb(19.999695%, 19.999695%, 19.999695%)" stroke-opacity="0.65" stroke-miterlimit="10" d="M 221.103813 0.0005 L 402.326469 0.0005 " transform="matrix(1, 0, 0, -1, 13.779, 105.688)"/>
<path fill-rule="nonzero" fill="rgb(19.999695%, 19.999695%, 19.999695%)" fill-opacity="0.65" d="M 418.003906 105.6875 L 415.445312 104.714844 L 416.304688 105.6875 L 415.445312 106.660156 Z M 418.003906 105.6875 "/>
<g clip-path="url(#clip-0)">
<path fill="none" stroke-width="0.79701" stroke-linecap="butt" stroke-linejoin="miter" stroke="rgb(19.999695%, 19.999695%, 19.999695%)" stroke-opacity="0.65" stroke-miterlimit="10" d="M 3.846836 0.0005 L 1.288243 0.973156 L 2.147618 0.0005 L 1.288243 -0.972156 Z M 3.846836 0.0005 " transform="matrix(1, 0, 0, -1, 414.15707, 105.688)"/>
</g>
<g fill="rgb(41.96167%, 39.216614%, 44.706726%)" fill-opacity="0.65">
<use xlink:href="#glyph-1-12" x="313.249" y="116.242"/>
<use xlink:href="#glyph-1-0" x="317.074827" y="116.242"/>
</g>
<g fill="rgb(41.96167%, 39.216614%, 44.706726%)" fill-opacity="0.65">
<use xlink:href="#glyph-1-7" x="320.570793" y="116.242"/>
</g>
<g fill="rgb(41.96167%, 39.216614%, 44.706726%)" fill-opacity="0.65">
<use xlink:href="#glyph-1-17" x="328.107378" y="116.242"/>
<use xlink:href="#glyph-1-15" x="331.400407" y="116.242"/>
<use xlink:href="#glyph-1-0" x="333.168265" y="116.242"/>
<use xlink:href="#glyph-1-6" x="336.873445" y="116.242"/>
<use xlink:href="#glyph-1-2" x="339.713874" y="116.242"/>
</g>
<g fill="rgb(41.96167%, 39.216614%, 44.706726%)" fill-opacity="0.65">
<use xlink:href="#glyph-1-11" x="345.475627" y="116.242"/>
<use xlink:href="#glyph-1-12" x="348.151474" y="116.242"/>
<use xlink:href="#glyph-1-2" x="351.977301" y="116.242"/>
</g>
<g fill="rgb(41.96167%, 39.216614%, 44.706726%)" fill-opacity="0.65">
<use xlink:href="#glyph-1-18" x="357.739054" y="116.242"/>
<use xlink:href="#glyph-1-16" x="361.564881" y="116.242"/>
<use xlink:href="#glyph-1-2" x="365.390708" y="116.242"/>
<use xlink:href="#glyph-1-8" x="368.683736" y="116.242"/>
<use xlink:href="#glyph-1-4" x="371.214528" y="116.242"/>
</g>
<g fill="rgb(41.96167%, 39.216614%, 44.706726%)" fill-opacity="0.65">
<use xlink:href="#glyph-1-13" x="377.097626" y="116.242"/>
<use xlink:href="#glyph-1-6" x="378.865484" y="116.242"/>
</g>
<g fill="rgb(41.96167%, 39.216614%, 44.706726%)" fill-opacity="0.65">
<use xlink:href="#glyph-1-11" x="384.174638" y="116.242"/>
<use xlink:href="#glyph-1-0" x="386.850485" y="116.242"/>
</g>
<g fill="rgb(41.96167%, 39.216614%, 44.706726%)" fill-opacity="0.65">
<use xlink:href="#glyph-1-11" x="393.02439" y="116.242"/>
<use xlink:href="#glyph-1-12" x="395.700237" y="116.242"/>
<use xlink:href="#glyph-1-2" x="399.526064" y="116.242"/>
</g>
<g fill="rgb(41.96167%, 39.216614%, 44.706726%)" fill-opacity="0.65">
<use xlink:href="#glyph-1-3" x="405.294791" y="116.242"/>
</g>
<g fill="rgb(41.96167%, 39.216614%, 44.706726%)" fill-opacity="0.65">
<use xlink:href="#glyph-1-2" x="408.705677" y="116.242"/>
<use xlink:href="#glyph-1-4" x="411.998705" y="116.242"/>
</g>
<path fill="none" stroke-width="0.79701" stroke-linecap="butt" stroke-linejoin="miter" stroke="rgb(19.999695%, 19.999695%, 19.999695%)" stroke-opacity="0.65" stroke-miterlimit="10" d="M 311.81475 -4.253406 L 311.81475 63.582531 " transform="matrix(1, 0, 0, -1, 13.779, 105.688)"/>
<path fill-rule="nonzero" fill="rgb(19.999695%, 19.999695%, 19.999695%)" fill-opacity="0.65" stroke-width="0.79701" stroke-linecap="butt" stroke-linejoin="miter" stroke="rgb(19.999695%, 19.999695%, 19.999695%)" stroke-opacity="0.65" stroke-miterlimit="10" d="M 3.847179 0.00015 L 1.288585 0.972806 L 2.14796 0.00015 L 1.288585 -0.972506 Z M 3.847179 0.00015 " transform="matrix(0, -1, -1, 0, 325.5939, 44.05421)"/>
<g clip-path="url(#clip-1)">
<path fill="none" stroke-width="1.49442" stroke-linecap="butt" stroke-linejoin="miter" stroke="rgb(59.606934%, 14.509583%, 59.606934%)" stroke-opacity="1" stroke-miterlimit="10" d="M 223.93975 0.0200313 C 223.93975 0.0200313 225.006156 0.0239375 225.416313 0.0239375 C 225.826469 0.0278438 226.482719 0.0278438 226.892875 0.03175 C 227.303031 0.03175 227.959281 0.0395625 228.369438 0.0395625 C 228.779594 0.0434688 229.435844 0.047375 229.846 0.0512813 C 230.256156 0.0551875 230.912406 0.063 231.322563 0.0669063 C 231.732719 0.0747188 232.388969 0.0825313 232.799125 0.0864375 C 233.209281 0.09425 233.865531 0.102063 234.275688 0.109875 C 234.685844 0.117688 235.342094 0.129406 235.75225 0.141125 C 236.162406 0.148938 236.818656 0.164563 237.228813 0.176281 C 237.638969 0.188 238.295219 0.207531 238.705375 0.223156 C 239.115531 0.234875 239.771781 0.258313 240.181938 0.277844 C 240.592094 0.293469 241.248344 0.324719 241.6585 0.34425 C 242.068656 0.363781 242.724906 0.398938 243.135063 0.426281 C 243.545219 0.449719 244.205375 0.492688 244.611625 0.523938 C 245.021781 0.551281 245.681938 0.605969 246.088188 0.641125 C 246.498344 0.676281 247.1585 0.738781 247.56475 0.78175 C 247.974906 0.824719 248.635063 0.902844 249.045219 0.953625 C 249.451469 1.004406 250.111625 1.090344 250.521781 1.148938 C 250.928031 1.211438 251.588188 1.313 251.998344 1.383313 C 252.404594 1.453625 253.06475 1.578625 253.474906 1.660656 C 253.881156 1.742688 254.541313 1.883313 254.951469 1.977063 C 255.361625 2.074719 256.017875 2.242688 256.428031 2.352063 C 256.838188 2.465344 257.494438 2.648938 257.904594 2.777844 C 258.31475 2.90675 258.971 3.1255 259.381156 3.270031 C 259.791313 3.418469 260.447563 3.664563 260.857719 3.832531 C 261.267875 4.0005 261.924125 4.285656 262.334281 4.473156 C 262.744438 4.664563 263.400688 4.980969 263.810844 5.195813 C 264.221 5.40675 264.87725 5.766125 265.287406 6.004406 C 265.697563 6.242688 266.353813 6.641125 266.763969 6.90675 C 267.174125 7.172375 267.830375 7.617688 268.240531 7.910656 C 268.650688 8.203625 269.306938 8.699719 269.717094 9.020031 C 270.12725 9.34425 270.7835 9.887219 271.193656 10.242688 C 271.603813 10.59425 272.260063 11.188 272.670219 11.574719 C 273.080375 11.957531 273.736625 12.598156 274.146781 13.016125 C 274.556938 13.430188 275.213188 14.129406 275.623344 14.578625 C 276.0335 15.027844 276.68975 15.773938 277.099906 16.2505 C 277.510063 16.730969 278.166313 17.523938 278.576469 18.03175 C 278.986625 18.539563 279.642875 19.383313 280.053031 19.922375 C 280.463188 20.457531 281.119438 21.336438 281.529594 21.898938 C 281.93975 22.461438 282.596 23.387219 283.006156 23.977063 C 283.416313 24.563 284.072563 25.523938 284.482719 26.129406 C 284.892875 26.738781 285.549125 27.727063 285.959281 28.348156 C 286.369438 28.96925 287.025688 29.980969 287.435844 30.617688 C 287.846 31.2505 288.50225 32.273938 288.912406 32.914563 C 289.322563 33.551281 289.978813 34.586438 290.388969 35.227063 C 290.799125 35.867688 291.459281 36.898938 291.865531 37.535656 C 292.275688 38.168469 292.935844 39.184094 293.342094 39.809094 C 293.75225 40.434094 294.412406 41.426281 294.818656 42.03175 C 295.228813 42.637219 295.888969 43.59425 296.299125 44.172375 C 296.705375 44.754406 297.365531 45.672375 297.775688 46.223156 C 298.181938 46.773938 298.842094 47.629406 299.25225 48.145031 C 299.6585 48.65675 300.318656 49.453625 300.728813 49.926281 C 301.135063 50.395031 301.795219 51.105969 302.205375 51.523938 C 302.615531 51.941906 303.271781 52.582531 303.681938 52.945813 C 304.092094 53.313 304.748344 53.855969 305.1585 54.160656 C 305.568656 54.465344 306.224906 54.90675 306.635063 55.148938 C 307.045219 55.391125 307.701469 55.730969 308.111625 55.90675 C 308.521781 56.082531 309.178031 56.309094 309.588188 56.418469 C 309.998344 56.523938 310.654594 56.641125 311.06475 56.680188 C 311.474906 56.715344 312.131156 56.715344 312.541313 56.680188 C 312.951469 56.645031 313.607719 56.53175 314.017875 56.422375 C 314.428031 56.316906 315.084281 56.086438 315.494438 55.914563 C 315.904594 55.738781 316.560844 55.40675 316.971 55.164563 C 317.381156 54.922375 318.037406 54.480969 318.447563 54.176281 C 318.857719 53.8755 319.513969 53.336438 319.924125 52.96925 C 320.334281 52.605969 320.990531 51.96925 321.400688 51.551281 C 321.810844 51.133313 322.467094 50.422375 322.87725 49.953625 C 323.287406 49.484875 323.943656 48.691906 324.353813 48.176281 C 324.763969 47.664563 325.420219 46.805188 325.830375 46.254406 C 326.240531 45.707531 326.896781 44.797375 327.306938 44.215344 C 327.717094 43.633313 328.373344 42.672375 328.7835 42.066906 C 329.193656 41.457531 329.849906 40.46925 330.260063 39.848156 C 330.670219 39.223156 331.326469 38.207531 331.736625 37.574719 C 332.146781 36.938 332.803031 35.90675 333.213188 35.266125 C 333.623344 34.6255 334.279594 33.590344 334.68975 32.953625 C 335.099906 32.313 335.756156 31.289563 336.166313 30.65675 C 336.576469 30.023938 337.232719 29.008313 337.642875 28.387219 C 338.053031 27.766125 338.713188 26.777844 339.119438 26.168469 C 339.529594 25.563 340.18975 24.602063 340.596 24.016125 C 341.006156 23.430188 341.666313 22.504406 342.072563 21.941906 C 342.482719 21.3755 343.142875 20.488781 343.549125 19.949719 C 343.959281 19.410656 344.619438 18.570813 345.029594 18.059094 C 345.435844 17.551281 346.096 16.758313 346.506156 16.28175 C 346.912406 15.801281 347.572563 15.051281 347.982719 14.602063 C 348.388969 14.152844 349.049125 13.457531 349.459281 13.043469 C 349.869438 12.6255 350.525688 11.980969 350.935844 11.598156 C 351.346 11.211438 352.00225 10.617688 352.412406 10.262219 C 352.822563 9.910656 353.478813 9.367688 353.888969 9.043469 C 354.299125 8.71925 354.955375 8.223156 355.365531 7.926281 C 355.775688 7.633313 356.431938 7.188 356.842094 6.922375 C 357.25225 6.65675 357.9085 6.254406 358.318656 6.016125 C 358.728813 5.777844 359.385063 5.418469 359.795219 5.203625 C 360.205375 4.992688 360.861625 4.672375 361.271781 4.484875 C 361.681938 4.297375 362.338188 4.012219 362.748344 3.84425 C 363.1585 3.676281 363.81475 3.430188 364.224906 3.28175 C 364.635063 3.137219 365.291313 2.918469 365.701469 2.789563 C 366.111625 2.660656 366.767875 2.46925 367.178031 2.359875 C 367.588188 2.246594 368.244438 2.082531 368.654594 1.984875 C 369.06475 1.887219 369.721 1.742688 370.131156 1.660656 C 370.541313 1.578625 371.197563 1.457531 371.607719 1.387219 C 372.017875 1.316906 372.674125 1.211438 373.084281 1.148938 C 373.494438 1.090344 374.150688 1.004406 374.560844 0.953625 C 374.971 0.902844 375.62725 0.824719 376.037406 0.78175 C 376.447563 0.738781 377.103813 0.676281 377.513969 0.641125 C 377.924125 0.605969 378.580375 0.555188 378.990531 0.527844 C 379.400688 0.496594 380.056938 0.449719 380.467094 0.426281 C 380.87725 0.402844 381.5335 0.367688 381.943656 0.34425 C 382.353813 0.324719 383.010063 0.293469 383.420219 0.277844 C 383.830375 0.262219 384.486625 0.234875 384.896781 0.223156 C 385.306938 0.207531 385.967094 0.188 386.373344 0.176281 C 386.7835 0.164563 387.443656 0.148938 387.849906 0.141125 C 388.260063 0.133313 388.920219 0.117688 389.326469 0.109875 C 389.736625 0.102063 390.396781 0.09425 390.806938 0.0864375 C 391.213188 0.0825313 391.873344 0.0747188 392.2835 0.0669063 C 392.68975 0.063 393.349906 0.0551875 393.760063 0.0512813 C 394.166313 0.047375 394.826469 0.0434688 395.236625 0.0395625 C 395.642875 0.0395625 396.303031 0.0356563 396.713188 0.03175 C 397.123344 0.0278438 397.779594 0.0278438 398.18975 0.0239375 C 398.599906 0.0239375 399.666313 0.0200313 399.666313 0.0200313 " transform="matrix(1, 0, 0, -1, 13.779, 105.688)"/>
</g>
<path fill-rule="nonzero" fill="rgb(8.233643%, 9.020996%, 23.922729%)" fill-opacity="1" d="M 286.03125 96.992188 C 286.03125 95.359375 284.707031 94.035156 283.074219 94.035156 C 281.441406 94.035156 280.113281 95.359375 280.113281 96.992188 C 280.113281 98.628906 281.441406 99.953125 283.074219 99.953125 C 284.707031 99.953125 286.03125 98.628906 286.03125 96.992188 Z M 286.03125 96.992188 "/>
<g fill="rgb(8.233643%, 9.020996%, 23.922729%)" fill-opacity="1">
<use xlink:href="#glyph-1-0" x="245.027" y="98.055"/>
<use xlink:href="#glyph-1-16" x="248.73218" y="98.055"/>
<use xlink:href="#glyph-1-8" x="252.558007" y="98.055"/>
</g>
<g fill="rgb(8.233643%, 9.020996%, 23.922729%)" fill-opacity="1">
<use xlink:href="#glyph-1-18" x="257.557524" y="98.055"/>
<use xlink:href="#glyph-1-16" x="261.383351" y="98.055"/>
<use xlink:href="#glyph-1-2" x="265.209177" y="98.055"/>
<use xlink:href="#glyph-1-8" x="268.502206" y="98.055"/>
<use xlink:href="#glyph-1-4" x="271.032998" y="98.055"/>
</g>
<path fill="none" stroke-width="1.59404" stroke-linecap="butt" stroke-linejoin="miter" stroke="rgb(89.411926%, 56.861877%, 78.823853%)" stroke-opacity="1" stroke-miterlimit="10" d="M 269.295219 8.695813 L 286.549125 21.922375 " transform="matrix(1, 0, 0, -1, 13.779, 105.688)"/>
<path fill-rule="nonzero" fill="rgb(89.411926%, 56.861877%, 78.823853%)" fill-opacity="1" stroke-width="1.00871" stroke-linecap="butt" stroke-linejoin="miter" stroke="rgb(89.411926%, 56.861877%, 78.823853%)" stroke-opacity="1" stroke-miterlimit="10" d="M 4.540751 0.00203259 L 1.627898 1.107831 L 2.610077 0.000499025 L 1.627998 -1.107231 Z M 4.540751 0.00203259 " transform="matrix(0.7936, -0.60837, -0.60837, -0.7936, 298.45629, 85.20157)"/>
<g fill="rgb(59.606934%, 14.509583%, 59.606934%)" fill-opacity="1">
<use xlink:href="#glyph-1-11" x="241.748" y="127.541"/>
<use xlink:href="#glyph-1-12" x="244.423847" y="127.541"/>
<use xlink:href="#glyph-1-2" x="248.249674" y="127.541"/>
</g>
<g fill="rgb(59.606934%, 14.509583%, 59.606934%)" fill-opacity="1">
<use xlink:href="#glyph-1-6" x="254.011427" y="127.541"/>
<use xlink:href="#glyph-1-15" x="256.851856" y="127.541"/>
<use xlink:href="#glyph-1-0" x="258.619714" y="127.541"/>
<use xlink:href="#glyph-1-20" x="262.324894" y="127.541"/>
</g>
<g fill="rgb(59.606934%, 14.509583%, 59.606934%)" fill-opacity="1">
<use xlink:href="#glyph-1-2" x="266.359935" y="127.541"/>
</g>
<g fill="rgb(59.606934%, 14.509583%, 59.606934%)" fill-opacity="1">
<use xlink:href="#glyph-1-20" x="272.121689" y="127.541"/>
</g>
<g fill="rgb(59.606934%, 14.509583%, 59.606934%)" fill-opacity="1">
<use xlink:href="#glyph-1-0" x="276.149755" y="127.541"/>
<use xlink:href="#glyph-1-13" x="279.854935" y="127.541"/>
<use xlink:href="#glyph-1-1" x="281.622794" y="127.541"/>
<use xlink:href="#glyph-1-11" x="285.44862" y="127.541"/>
<use xlink:href="#glyph-1-6" x="288.124467" y="127.541"/>
</g>
<g fill="rgb(59.606934%, 14.509583%, 59.606934%)" fill-opacity="1">
<use xlink:href="#glyph-1-16" x="293.440595" y="127.541"/>
<use xlink:href="#glyph-1-20" x="297.266422" y="127.541"/>
<use xlink:href="#glyph-1-12" x="301.092248" y="127.541"/>
<use xlink:href="#glyph-1-13" x="304.918075" y="127.541"/>
<use xlink:href="#glyph-1-15" x="306.685933" y="127.541"/>
<use xlink:href="#glyph-1-15" x="308.453792" y="127.541"/>
</g>
<g fill="rgb(59.606934%, 14.509583%, 59.606934%)" fill-opacity="1">
<use xlink:href="#glyph-1-6" x="233.041" y="135.511"/>
<use xlink:href="#glyph-1-0" x="235.881429" y="135.511"/>
</g>
<g fill="rgb(59.606934%, 14.509583%, 59.606934%)" fill-opacity="1">
<use xlink:href="#glyph-1-11" x="242.055334" y="135.511"/>
<use xlink:href="#glyph-1-12" x="244.731181" y="135.511"/>
<use xlink:href="#glyph-1-2" x="248.557008" y="135.511"/>
</g>
<g fill="rgb(59.606934%, 14.509583%, 59.606934%)" fill-opacity="1">
<use xlink:href="#glyph-1-18" x="254.318761" y="135.511"/>
<use xlink:href="#glyph-1-16" x="258.144588" y="135.511"/>
<use xlink:href="#glyph-1-2" x="261.970415" y="135.511"/>
<use xlink:href="#glyph-1-8" x="265.263443" y="135.511"/>
<use xlink:href="#glyph-1-4" x="267.794235" y="135.511"/>
</g>
<g fill="rgb(59.606934%, 14.509583%, 59.606934%)" fill-opacity="1">
<use xlink:href="#glyph-1-17" x="273.677333" y="135.511"/>
</g>
<g fill="rgb(59.606934%, 14.509583%, 59.606934%)" fill-opacity="1">
<use xlink:href="#glyph-1-5" x="276.977335" y="135.511"/>
<use xlink:href="#glyph-1-1" x="280.536762" y="135.511"/>
</g>
<g fill="rgb(59.606934%, 14.509583%, 59.606934%)" fill-opacity="1">
<use xlink:href="#glyph-1-21" x="286.831314" y="135.511"/>
</g>
<g fill="rgb(59.606934%, 14.509583%, 59.606934%)" fill-opacity="1">
<use xlink:href="#glyph-1-2" x="290.859381" y="135.511"/>
</g>
<g fill="rgb(59.606934%, 14.509583%, 59.606934%)" fill-opacity="1">
<use xlink:href="#glyph-1-1" x="296.621135" y="135.511"/>
<use xlink:href="#glyph-1-16" x="300.446961" y="135.511"/>
</g>
<g fill="rgb(59.606934%, 14.509583%, 59.606934%)" fill-opacity="1">
<use xlink:href="#glyph-1-22" x="304.279762" y="135.511"/>
<use xlink:href="#glyph-1-14" x="308.105588" y="135.511"/>
</g>
<g fill="rgb(59.606934%, 14.509583%, 59.606934%)" fill-opacity="1">
<use xlink:href="#glyph-1-2" x="311.803795" y="135.511"/>
</g>
<g fill="rgb(59.606934%, 14.509583%, 59.606934%)" fill-opacity="1">
<use xlink:href="#glyph-1-22" x="315.103797" y="135.511"/>
</g>
</svg>
